<?xml version="1.0" standalone="no"?>
<!DOCTYPE svg PUBLIC "-//W3C//DTD SVG 1.1//EN" "http://www.w3.org/Graphics/SVG/1.1/DTD/svg11.dtd" >
<svg xmlns="http://www.w3.org/2000/svg">
<metadata>
Created by FontForge 20120731 at Tue May 24 09:47:10 2016
 By admin
</metadata>
<defs>
<font id="photofont" horiz-adv-x="1024" >
  <font-face 
    font-family="photofont"
    font-weight="500"
    font-stretch="normal"
    units-per-em="1024"
    panose-1="2 0 6 3 0 0 0 0 0 0"
    ascent="896"
    descent="-128"
    x-height="792"
    bbox="-2 -224.981 6917 896"
    underline-thickness="50"
    underline-position="-100"
    unicode-range="U+0078-E758"
  />
<missing-glyph horiz-adv-x="374" 
d="M34 0v682h272v-682h-272zM68 34h204v614h-204v-614z" />
    <glyph glyph-name=".notdef" horiz-adv-x="374" 
d="M34 0v682h272v-682h-272zM68 34h204v614h-204v-614z" />
    <glyph glyph-name=".null" horiz-adv-x="0" 
 />
    <glyph glyph-name="nonmarkingreturn" horiz-adv-x="341" 
 />
    <glyph glyph-name="x" unicode="x" horiz-adv-x="1001" 
d="M281 543q-27 -1 -53 -1h-83q-18 0 -36.5 -6t-32.5 -18.5t-23 -32t-9 -45.5v-76h912v41q0 16 -0.5 30t-0.5 18q0 13 -5 29t-17 29.5t-31.5 22.5t-49.5 9h-133v-97h-438v97zM955 310v-52q0 -23 0.5 -52t0.5 -58t-10.5 -47.5t-26 -30t-33 -16t-31.5 -4.5q-14 -1 -29.5 -0.5
t-29.5 0.5h-32l-45 128h-439l-44 -128h-29h-34q-20 0 -45 1q-25 0 -41 9.5t-25.5 23t-13.5 29.5t-4 30v167h911zM163 247q-12 0 -21 -8.5t-9 -21.5t9 -21.5t21 -8.5q13 0 22 8.5t9 21.5t-9 21.5t-22 8.5zM316 123q-8 -26 -14 -48q-5 -19 -10.5 -37t-7.5 -25t-3 -15t1 -14.5
t9.5 -10.5t21.5 -4h37h67h81h80h64h36q23 0 34 12t2 38q-5 13 -9.5 30.5t-9.5 34.5q-5 19 -11 39h-368zM336 498v228q0 11 2.5 23t10 21.5t20.5 15.5t34 6h188q31 0 51.5 -14.5t20.5 -52.5v-227h-327z" />
    <glyph glyph-name="uniE600" unicode="&#xe600;" 
d="M364 339q-20 -18 -20 -44t21 -44l309 -271q7 -6 15.5 -5.5t14.5 7.5t5.5 15.5t-7.5 14.5l-309 271q-14 12 -1 24l310 281q7 6 7.5 15t-5.5 15.5t-15 7t-15 -5.5z" />
    <glyph glyph-name="uniE601" unicode="&#xe601;" 
d="M235 113q9 -27 35 -46t55 -19h537h18l6 19l123 429q9 32 -9 56.5t-51 24.5h-524q-11 0 -18 -7.5t-7 -18t7 -18t18 -7.5h524q17 0 12 -16l-123 -429l24 18h-537q-13 0 -26 9t-17 21l-208 619q-4 10 -13 15t-19 1.5t-14.5 -13t-1.5 -19.5zM400 -90q0 42 -29.5 71.5
t-71 29.5t-70.5 -29.5t-29 -71.5t29 -71.5t70.5 -29.5t71 29.5t29.5 71.5zM250 -90q0 21 14.5 35.5t35 14.5t35.5 -14.5t15 -35.5t-15 -35.5t-35.5 -14.5t-35 14.5t-14.5 35.5zM924 -90q0 42 -29 71.5t-70.5 29.5t-71 -29.5t-29.5 -71.5t29.5 -71.5t71 -29.5t70.5 29.5
t29 71.5zM774 -90q0 21 15 35.5t35.5 14.5t35 -14.5t14.5 -35.5t-14.5 -35.5t-35 -14.5t-35.5 14.5t-15 35.5z" />
    <glyph glyph-name="uniE602" unicode="&#xe602;" 
d="M134 556q10 0 17 6t7 15t-7 15.5t-17 6.5h-97q-11 0 -18 -6.5t-7 -15.5t7 -15t18 -6h97zM134 279q10 0 17 6t7 15t-7 15t-17 6h-97q-11 0 -18 -6t-7 -15t7 -15t18 -6h97zM134 1q10 0 17 6.5t7 15.5t-7 15t-17 6h-97q-11 0 -18 -6t-7 -15t7 -15.5t18 -6.5h97zM987 556
q11 0 18 6t7 15t-7 15.5t-18 6.5h-707q-10 0 -17 -6.5t-7 -15.5t7 -15t17 -6h707zM994 279q10 0 17 6t7 15t-7 15t-17 6h-708q-10 0 -17 -6t-7 -15t7 -15t17 -6h708zM997 1q10 0 17 6.5t7 15.5t-7 15t-17 6h-707q-11 0 -18 -6t-7 -15t7 -15.5t18 -6.5h707z" />
    <glyph glyph-name="uniE603" unicode="&#xe603;" 
d="M177 -5q-6 -7 -6 -15.5t6.5 -14.5t15 -6t14.5 6l619 640q6 7 6 15.5t-6.5 14.5t-15.5 6t-15 -6zM795 -35q6 -6 15 -6t15.5 6t6.5 14.5t-6 15.5l-619 640q-6 6 -14.5 6t-15 -6t-6.5 -14.5t6 -15.5z" />
    <glyph glyph-name="uniE604" unicode="&#xe604;" 
d="M131 23q-32 0 -55 23.5t-23 56.5v640l-27 -27h867q32 0 55 -23.5t23 -56.5v-640l27 27h-473h-8l-6 -5l-225 -151q-9 -6 -11.5 -16.5t3.5 -20t17 -11.5t20 4l225 151l-15 -5h473h26v27v640q0 55 -38.5 94t-92.5 39h-867h-26v-26v-640q0 -56 38.5 -95t92.5 -39h137
q11 0 18.5 8t7.5 19t-7.5 19t-18.5 8h-137zM368 369.5q0 44.5 -31 75.5t-74.5 31t-74 -31t-30.5 -75.5t30.5 -75.5t74 -31t74.5 31t31 75.5zM210 369q0 22 15.5 38t37 16t37 -16t15.5 -38t-15.5 -37.5t-37 -15.5t-37 15.5t-15.5 37.5zM630 369.5q0 44.5 -30.5 75.5t-74 31
t-74.5 -31t-31 -75.5t31 -75.5t74.5 -31t74 31t30.5 75.5zM473 369q0 22 15 38t37 16t37.5 -16t15.5 -38t-15.5 -37.5t-37.5 -15.5t-37 15.5t-15 37.5zM893 369.5q0 44.5 -31 75.5t-74.5 31t-74 -31t-30.5 -75.5t30.5 -75.5t74 -31t74.5 31t31 75.5zM735 369q0 22 15.5 38
t37 16t37 -16t15.5 -38t-15.5 -37.5t-37 -15.5t-37 15.5t-15.5 37.5z" />
    <glyph glyph-name="uniE605" unicode="&#xe605;" 
d="M1024 300q0 139 -68.5 257t-186.5 186.5t-257 68.5t-257 -68.5t-186.5 -186.5t-68.5 -257t68.5 -257t186.5 -186.5t257 -68.5q179 0 319 111q8 7 9 17t-5.5 18.5t-16.5 9.5t-18 -6q-126 -100 -288 -100q-94 0 -179.5 36.5t-147.5 98.5t-98.5 147.5t-36.5 179.5
t36.5 179.5t98.5 147.5t147.5 98.5t179.5 36.5t179.5 -36.5t147.5 -98.5t98.5 -147.5t36.5 -179.5q0 -132 -70 -244q-5 -9 -2.5 -19t11 -15.5t18.5 -3t16 11.5q77 123 77 270zM337 312q26 0 44.5 18.5t18.5 44.5t-18.5 44t-44.5 18t-44 -18t-18 -44t18 -44.5t44 -18.5z
M712 312q26 0 44 18.5t18 44.5t-18 44t-44 18t-44.5 -18t-18.5 -44t18.5 -44.5t44.5 -18.5zM353 107q69 56 171.5 56t171.5 -56q36 -28 51 -58q4 -9 1 -19t-12.5 -14.5t-19 -1.5t-14.5 13q-2 4 -8 11q-12 17 -29 30q-56 45 -140.5 45t-140.5 -45q-17 -13 -29 -30
q-6 -7 -8 -11q-5 -10 -14.5 -13t-19 1.5t-12.5 14.5t1 19q15 30 51 58z" />
    <glyph glyph-name="uniE606" unicode="&#xe606;" 
d="M973 603q11 0 18.5 7.5t7.5 18.5t-7.5 18.5t-18.5 7.5l-941 2q-10 0 -18 -8t-8 -19t8 -18.5t18 -7.5zM180 -180v-27h27l626 7h26v26v697q0 11 -7.5 18.5t-18.5 7.5t-18.5 -7.5t-7.5 -18.5v-697l26 27l-627 -7l27 -26v709q0 11 -7.5 19t-18.5 8t-19 -8t-8 -19v-709z
M656 -35q0 -11 8 -18.5t19 -7.5t18.5 7.5t7.5 18.5v475q0 11 -7.5 18.5t-18.5 7.5t-19 -7.5t-8 -18.5v-475zM341 -35q0 -11 8 -18.5t18.5 -7.5t18.5 7.5t8 18.5v475q0 11 -8 18.5t-18.5 7.5t-18.5 -7.5t-8 -18.5v-475zM499 -35q0 -11 7.5 -18.5t18.5 -7.5t18.5 7.5t7.5 18.5
v475q0 11 -7.5 18.5t-18.5 7.5t-18.5 -7.5t-7.5 -18.5v-475zM392 695q0 11 7.5 19t18.5 8h205q11 0 18.5 -8t7.5 -19v-55h53v55q0 33 -23 56t-56 23h-205q-32 0 -55 -23t-23 -56v-48h52v48z" />
    <glyph glyph-name="uniE607" unicode="&#xe607;" 
d="M34 581h-25v-25v-598q0 -52 36.5 -89t88.5 -37h794h25v25v484q0 10 -7.5 17.5t-17.5 7.5t-17.5 -7.5t-7.5 -17.5v-484l25 25h-794q-31 0 -53 22.5t-22 53.5v598l-25 -25h565q10 0 17.5 7t7.5 17.5t-7.5 18t-17.5 7.5h-565zM437 218l-5 -6v-9l-4 -149l-1 -36l34 12l144 51
l7 3l4 6l387 511l16 20l-21 16l-129 97l-19 15l-15 -20zM840 694l128 -98l-4 36l-387 -511l11 8l-143 -52l33 -24l4 149l-6 -15l398 511zM891 501l29 41l-112 82l-29 -41z" />
    <glyph glyph-name="uniE608" unicode="&#xe608;" 
d="M973 -122l25 25h-870q-32 0 -54.5 23t-22.5 55v720l-25 -26h870q32 0 54.5 -22.5t22.5 -54.5v-65q0 -10 7.5 -17.5t18 -7.5t18 7.5t7.5 17.5v65q0 53 -37.5 91t-90.5 38h-870h-26v-26v-720q0 -54 37.5 -91.5t90.5 -37.5h870h26v26v476q0 11 -7.5 18.5t-18 7.5t-18 -7.5
t-7.5 -18.5v-476zM513 245q13 -10 27 -2l463 255q9 5 12 15.5t-2 20t-15.5 12.5t-19.5 -3l-463 -255l27 -1l-348 248q-9 7 -19.5 5t-16.5 -10.5t-4 -19t10 -16.5z" />
    <glyph glyph-name="uniE609" unicode="&#xe609;" 
d="M472 728q10 23 17 22.5t17 -22.5l114 -265q4 -9 13.5 -13t19 0t13.5 13.5t0 19.5l-113 264q-23 53 -63 53t-64 -52l-119 -260q-5 -10 -1 -19.5t13.5 -13.5t19 -0.5t14.5 13.5zM946 404q25 -3 27.5 -9.5t-16.5 -22.5l-221 -188q-8 -7 -9 -17t6 -18t17.5 -8.5t18.5 5.5
l221 188q44 37 32 75t-70 44l-289 31q-11 1 -19 -5.5t-9 -17t5.5 -18.5t16.5 -9zM789 -146q5 -24 -0.5 -28t-27.5 8l-250 149q-9 5 -19 2.5t-15.5 -11t-3 -18.5t11.5 -16l250 -148q50 -30 83 -7t21 79l-60 279q-2 11 -10.5 16.5t-19 3.5t-16 -11t-3.5 -19zM233 -163
q-22 -13 -27.5 -8.5t-0.5 28.5l67 279q2 10 -3.5 18.5t-15.5 11t-19 -3t-12 -15.5l-66 -279q-13 -56 19 -79.5t83 5.5l252 142q9 5 12 14.5t-2.5 18.5t-15.5 12t-19 -2zM130 299q-48 43 -88 78q-8 7 -18 6.5t-17 -8.5t-6.5 -18t7.5 -17q40 -35 88 -78l128 -114q8 -6 18 -5.5
t17 8t6.5 17.5t-7.5 17l-1 1h-1v1l-1 1h-1l-1 1v1h-1l-1 1l-1 1l-1 1h-1v1l-1 1l-1 1h-1v1h-1v1h-1l-1 1l-1 1l-1 1l-1 1l-1 1l-1 1h-1v1h-1v1h-1v1h-1l-1 1l-1 1l-1 1l-1 1h-1v1h-1v1h-1v1h-1v1h-1l-1 1l-1 1l-1 1h-1v1h-1v1h-1v1h-1v1h-1v1h-1l-1 1l-1 1l-1 1l-1 1h-1v1
h-1v1h-1l-1 1l-1 1l-1 1l-1 1l-1 1h-1v1l-1 1h-1v1h-1l-1 1v1h-1l-1 1l-1 1l-1 1h-1v1l-1 1h-1v1h-1l-1 1l-1 1l-1 1l-1 1h-1v1l-1 1h-1l-1 1v1h-1l-1 1l-1 1l-1 1l-1 1l-1 1h-1l-1 1v1l-1 1h-1l-1 1l-1 1v1h-1l-1 1l-1 1l-1 1h-1l-1 1v1l-1 1h-1l-1 1l-1 1l-1 1l-1 1h-1
l-1 1v1l-1 1l-1 1h-1l-1 1l-1 1l-1 1l-1 1h-1l-1 1l-1 1l-1 1l-1 1v1l-1 1h-1l-1 1l-1 1l-1 1l-1 1l-1 1l-1 1h-1l-1 1l-1 1l-1 1zM180 418q15 1 31 3q37 4 76 8q13 2 24 3q6 1 9 1q10 1 16.5 9.5t5.5 18.5t-9.5 16.5t-18.5 4.5q-3 0 -9 -1q-11 -1 -23 -2q-40 -5 -76 -9
q-16 -2 -31 -3q-31 -3 -56 -5q-10 -1 -17 -9t-6 -18t9 -16.5t18 -6.5q25 3 57 6z" />
    <glyph glyph-name="uniE60A" unicode="&#xe60a;" 
d="M1024 466q0 52 -36.5 88.5t-88.5 36.5h-375l18 -7l-127 124l-7 7h-10h-348h-25v-25v-678q0 -52 36.5 -88.5t87.5 -36.5h738q11 0 18 7t7 17.5t-7 18t-18 7.5h-738q-30 0 -52 22t-22 53v678l-25 -25h348l-17 7l126 -124l7 -7h10h375q31 0 53 -22t22 -53v-443
q0 -10 7 -17.5t17.5 -7.5t18 7.5t7.5 17.5v443zM1016 326v50h-988v-50h988z" />
    <glyph glyph-name="uniE60B" unicode="&#xe60b;" 
d="M836 763q30 0 52 -21.5t22 -51.5v-713l7 17l-162 -165l18 8h-585q-30 0 -52 21.5t-22 51.5v878l-25 -25h747zM64 812v-24v-878q0 -51 36.5 -86.5t87.5 -35.5h585h11l7 7l162 165l7 7v10v713q0 51 -36.5 86.5t-87.5 35.5h-747h-25zM736 105q-31 0 -53 -21.5t-22 -51.5
v-146q0 -11 7.5 -18t18 -7t17.5 7t7 18v146q0 10 7.5 17t17.5 7h112q10 0 17.5 7t7.5 17.5t-7.5 17.5t-17.5 7h-112zM775 593q10 0 17.5 7t7.5 17t-7.5 17t-17.5 7h-512q-10 0 -17.5 -7t-7.5 -17t7.5 -17t17.5 -7h512zM775 446q10 0 17.5 7.5t7.5 17.5t-7.5 17t-17.5 7h-512
q-10 0 -17.5 -7t-7.5 -17t7.5 -17.5t17.5 -7.5h512zM775 276q10 0 17.5 7t7.5 17t-7.5 17t-17.5 7h-512q-10 0 -17.5 -7t-7.5 -17t7.5 -17t17.5 -7h512z" />
    <glyph glyph-name="uniE60C" unicode="&#xe60c;" 
d="M1024 300q0 139 -68.5 257t-186.5 186.5t-257 68.5t-257 -68.5t-186.5 -186.5t-68.5 -257t68.5 -257t186.5 -186.5t257 -68.5q179 0 319 111q8 7 9 17t-5.5 18.5t-16.5 9.5t-18 -6q-126 -100 -288 -100q-94 0 -179.5 36.5t-147.5 98.5t-98.5 147.5t-36.5 179.5
t36.5 179.5t98.5 147.5t147.5 98.5t179.5 36.5t179.5 -36.5t147.5 -98.5t98.5 -147.5t36.5 -179.5q0 -132 -70 -244q-5 -9 -2.5 -19t11 -15.5t18.5 -3t16 11.5q77 123 77 270zM533 121q14 0 24 -10t10 -25v-9q0 -14 -10 -24t-24 -10t-24 10t-10 24v9q0 15 10 25t24 10z
M375 393q0 -2 1 -6t8.5 -10.5t19 -6.5t18.5 6t8 11l2 6q-2 58 24.5 85t80.5 24q73 -8 75 -81q-5 -33 -54 -85q-65 -65 -65 -117v-35q1 -3 2 -6.5t8 -9t17.5 -5.5t17.5 5t8 10l2 6v24q0 44 62 104q64 59 64 109q-5 136 -142 141q-157 3 -157 -169z" />
    <glyph glyph-name="uniE60D" unicode="&#xe60d;" 
d="M1024 300q0 139 -68.5 257t-186.5 186.5t-257 68.5t-257 -68.5t-186.5 -186.5t-68.5 -257t68.5 -257t186.5 -186.5t257 -68.5q179 0 319 111q8 7 9 17t-5.5 18.5t-16.5 9.5t-18 -6q-126 -100 -288 -100q-94 0 -179.5 36.5t-147.5 98.5t-98.5 147.5t-36.5 179.5
t36.5 179.5t98.5 147.5t147.5 98.5t179.5 36.5t179.5 -36.5t147.5 -98.5t98.5 -147.5t36.5 -179.5q0 -132 -70 -244q-5 -9 -2.5 -19t11 -15.5t18.5 -3t16 11.5q77 123 77 270zM500 69q0 -10 7 -17.5t17.5 -7.5t17.5 7.5t7 17.5v318q0 11 -7 18t-17.5 7t-17.5 -7t-7 -18v-318
zM500 494q0 -11 7 -18t17.5 -7t17.5 7t7 18v43q0 11 -7 18t-17.5 7t-17.5 -7t-7 -18v-43z" />
    <glyph glyph-name="uniE60E" unicode="&#xe60e;" 
d="M510 425q12 14 25 0l270 -310q6 -6 15 -7t15.5 5t7 15t-5.5 15l-270 310q-18 20 -44 20.5t-45 -20.5l-280 -309q-6 -7 -6 -16t7 -14.5t15.5 -5.5t14.5 7z" />
    <glyph glyph-name="uniE60F" unicode="&#xe60f;" 
d="M478 168q19 -20 45 -20t44 21l270 309q6 7 5.5 15.5t-7 14.5t-15.5 5.5t-15 -7.5l-270 -309q-13 -14 -25 -1l-281 310q-6 7 -14.5 7.5t-15.5 -5.5t-7 -15t6 -15z" />
    <glyph glyph-name="uniE610" unicode="&#xe610;" 
d="M642 307q14 -12 0 -24l-309 -271q-7 -6 -7.5 -14.5t5 -15.5t14.5 -7.5t16 5.5l309 271q21 18 21 44t-20 44l-310 281q-7 6 -15.5 5.5t-14.5 -7t-5.5 -15.5t6.5 -15z" />
    <glyph glyph-name="uniE611" unicode="&#xe611;" 
d="M475 236l-35 -4l228 -144l16 -11l15 12l313 231l12 9v14v260q0 60 -41.5 102.5t-100.5 42.5h-854h-28v-29v-722q0 -60 41.5 -102.5t100.5 -42.5h854h28v29v260q0 12 -8.5 20.5t-20 8.5t-20 -8.5t-8.5 -20.5v-260l29 29h-854q-35 0 -60 25.5t-25 61.5v722l-29 -29h854
q35 0 60 -25.5t25 -61.5v-260l12 24l-313 -231l32 1l-228 144l-19 12l-16 -16l-228 -231q-8 -9 -8 -21t8.5 -20t20 -8t20.5 8zM341 473.5q0 41.5 -29 71.5t-70 30t-70.5 -30t-29.5 -71.5t29.5 -71.5t70.5 -30t70 30t29 71.5zM199 473q0 18 12.5 31t30 13t30 -13t12.5 -31
t-12.5 -30.5t-30 -12.5t-30 12.5t-12.5 30.5z" />
    <glyph glyph-name="uniE612" unicode="&#xe612;" 
d="M512 812q-139 0 -257 -68.5t-186.5 -186.5t-68.5 -257t68.5 -257t186.5 -186.5t257 -68.5q123 0 231 54.5t180 151t93 216.5q3 17 5 34q1 11 -5.5 19t-16.5 9t-18.5 -5.5t-9.5 -16.5q-1 -16 -4 -31q-29 -165 -158 -273t-297 -108q-94 0 -179.5 36.5t-147.5 98.5
t-98.5 147.5t-36.5 179.5t36.5 179.5t98.5 147.5t147.5 98.5t179.5 36.5q139 0 254.5 -76t169.5 -203q4 -9 14 -13t19.5 0t13 14t-0.5 19q-60 140 -188 224.5t-282 84.5zM958 462l25 25h-259q-10 0 -17.5 -7.5t-7.5 -18t7.5 -17.5t17.5 -7h259q11 0 18 7t7 18v275
q0 10 -7 17.5t-17.5 7.5t-18 -7.5t-7.5 -17.5v-275z" />
    <glyph glyph-name="uniE613" unicode="&#xe613;" 
d="M798 320l-37 1l191 -236l18 39h-119h-24v-24v-264l24 23h-167l24 -23v166q0 10 -7 17t-17 7t-17 -7t-7 -17v-166v-24h24h167h24v24v264l-24 -24h119h50l-31 39l-190 236l-18 22l-19 -21l-209 -238q-7 -7 -6.5 -17t8 -16.5t17.5 -6t16 8.5zM154 -117q-35 0 -60 26t-25 63
v816l-24 -24h703q35 0 60 -25.5t25 -62.5v-427h48v427q0 56 -39 96t-94 40h-703h-24v-24v-816q0 -57 39 -96.5t94 -39.5h533v47h-533zM735 431q10 0 17 7t7 17t-7 17t-17 7h-546q-9 0 -16 -7t-7 -17t7 -17t16 -7h546zM738 574q10 0 17 7t7 17t-7 16.5t-17 6.5h-546
q-10 0 -17 -6.5t-7 -16.5t7 -17t17 -7h546z" />
    <glyph glyph-name="uniE614" unicode="&#xe614;" 
d="M1002 -180q-2 5 -3 7l-4 6q-3 4 -10 11q-10 12 -31 34q-26 27 -96 98q-69 70 -95 97q-20 21 -30 32q-5 6 -7 8q1 -1 3 -5q1 -6 0 -9t-7 -16q62 60 95.5 139.5t33.5 167.5q0 114 -55.5 211.5t-151 154t-208 56.5t-208.5 -56.5t-151.5 -154t-55.5 -212t55.5 -212
t151.5 -154t208 -56.5q8 0 16 1q5 0 15 1q17 2 23 2q13 0 47 10l8 2q13 3 26 7q7 3 11 4q10 3 15 12.5t2 19.5t-12.5 15t-19.5 2q-4 -2 -11 -4q-13 -4 -24 -7l-8 -2q-28 -8 -34 -8q-9 0 -28 -2q-9 -1 -13 -1q-7 -1 -13 -1q-99 0 -183 50t-132.5 135.5t-48.5 186t48.5 186
t132.5 135.5t183 50t183 -50t133 -135.5t49 -185.5q0 -78 -29.5 -147.5t-84.5 -122.5q-7 -13 -8 -16.5t1 -9.5q2 -4 3 -7q1 -2 4 -5q3 -5 9 -11q11 -12 31 -34q26 -27 95.5 -97.5t95.5 -97.5q20 -21 30 -32q5 -6 7 -8q-1 2 -2 6q-2 6 -1 9t9 16q-8 -7 -9 -17.5t6 -18.5
t17 -9t18 6q8 13 9 16.5t0 9.5z" />
    <glyph glyph-name="uniE615" unicode="&#xe615;" 
d="M464 135q8 -7 18 -7t17 8l300 309q7 7 7 17.5t-7.5 17.5t-18 7t-17.5 -7l-300 -310l35 1l-181 167q-8 7 -18.5 6.5t-17.5 -8t-6.5 -18t8.5 -17.5z" />
    <glyph glyph-name="uniE616" unicode="&#xe616;" 
d="M826 164l-7 -12l8 -12l78 -116l4 31l-139 -135l29 3l-128 76l-10 6l-11 -4q-13 -5 -25 -10l-13 -4l-3 -14l-28 -131l24 19h-197l24 -18l-34 137l-3 13l-12 4q-11 4 -22 10l-12 5l-11 -7l-120 -77l30 -3l-139 136l4 -31l78 125l7 11l-6 11l-10 26l-4 13l-14 2l-135 28
l20 -24v191l-19 -23l141 33l12 3l5 11q5 13 12 25l6 13l-8 12l-73 110l-3 -30l138 136l-30 -3l123 -75l10 -6l12 5l20 8l12 4l3 13l33 133l-23 -19h196l-24 20l29 -136l3 -13l13 -5q15 -6 30 -13l12 -6l11 7l114 72l-30 3l140 -135l-4 31l-76 -120l-7 -11l5 -12
q6 -12 10 -25l5 -12l13 -4l134 -31l-19 24v-192l20 24l-142 -29l-13 -2l-5 -12q-4 -11 -9 -22zM858 176l5 -24l141 29l20 4v20v192v19l-19 4l-134 32l-6 -24l23 8q-5 15 -11 29l-22 -10l20 -13l77 120l10 17l-14 13l-140 135l-14 13l-16 -10l-114 -71l13 -21l11 22
q-17 8 -34 15l-9 -23l24 5l-29 136l-4 19h-20h-196h-19l-5 -19l-33 -133l24 -5l-8 23q-12 -4 -23 -9l9 -23l13 21l-123 74l-16 10l-14 -13l-138 -137l-14 -14l11 -17l73 -110l21 13l-22 11q-7 -14 -13 -28l23 -9l-6 23l-141 -33l-19 -4v-20v-191v-20l20 -4l134 -27l5 24
l-23 -9q5 -14 12 -28l22 10l-21 12l-78 -124l-10 -17l14 -13l139 -136l14 -13l16 10l120 77l-13 20l-10 -22l24 -10l9 22l-23 -5l34 -138l4 -19h19h197h20l4 20l28 131l-24 5l7 -23q15 5 28 11l-9 22l-12 -21l127 -76l16 -9l14 13l139 135l14 14l-11 17l-78 116l-21 -13
l22 -11q6 12 11 24zM731 312q0 86 -60.5 146.5t-146.5 60.5t-146.5 -60.5t-60.5 -146.5t60.5 -146.5t146.5 -60.5q44 0 84 18q9 4 13 13.5t0 18.5t-13.5 12.5t-19.5 -0.5q-30 -13 -64 -13q-65 0 -111.5 46.5t-46.5 112t46.5 112t112 46.5t112 -46.5t46.5 -112.5
q0 -17 -4 -34q-2 -10 3.5 -18.5t15 -10.5t18 3.5t11.5 15.5q4 22 4 44z" />
    <glyph glyph-name="uniE617" unicode="&#xe617;" 
d="M1024 300q0 139 -68.5 257t-186.5 186.5t-257 68.5t-257 -68.5t-186.5 -186.5t-68.5 -257t68.5 -257t186.5 -186.5t257 -68.5q179 0 319 111q8 7 9 17t-5.5 18.5t-16.5 9.5t-18 -6q-126 -100 -288 -100q-94 0 -179.5 36.5t-147.5 98.5t-98.5 147.5t-36.5 179.5
t36.5 179.5t98.5 147.5t147.5 98.5t179.5 36.5t179.5 -36.5t147.5 -98.5t98.5 -147.5t36.5 -179.5q0 -132 -70 -244q-5 -9 -2.5 -19t11 -15.5t18.5 -3t16 11.5q77 123 77 270zM337 312q26 0 44.5 18.5t18.5 44.5t-18.5 44t-44.5 18t-44 -18t-18 -44t18 -44.5t44 -18.5z
M712 312q26 0 44 18.5t18 44.5t-18 44t-44 18t-44.5 -18t-18.5 -44t18.5 -44.5t44.5 -18.5zM353 43q69 -55 171.5 -55t171.5 55q36 29 51 59q4 9 1 18.5t-12.5 14.5t-19 1.5t-14.5 -12.5q-2 -4 -8 -12q-12 -16 -29 -30q-56 -44 -140.5 -44t-140.5 44q-17 14 -29 30
q-6 8 -8 12q-5 9 -14.5 12.5t-19 -1.5t-12.5 -14.5t1 -18.5q15 -30 51 -59z" />
    <glyph glyph-name="uniE618" unicode="&#xe618;" 
d="M464 135q8 -7 18 -7t17 8l300 309q7 7 7 17.5t-7.5 17.5t-18 7t-17.5 -7l-300 -310l35 1l-181 167q-8 7 -18.5 6.5t-17.5 -8t-6.5 -18t8.5 -17.5zM1024 300q0 139 -68.5 257t-186.5 186.5t-257 68.5t-257 -68.5t-186.5 -186.5t-68.5 -257t68.5 -257t186.5 -186.5
t257 -68.5q179 0 319 111q8 7 9 17t-5.5 18.5t-16.5 9.5t-18 -6q-126 -100 -288 -100q-94 0 -179.5 36.5t-147.5 98.5t-98.5 147.5t-36.5 179.5t36.5 179.5t98.5 147.5t147.5 98.5t179.5 36.5t179.5 -36.5t147.5 -98.5t98.5 -147.5t36.5 -179.5q0 -132 -70 -244
q-5 -9 -2.5 -19t11 -15.5t18.5 -3t16 11.5q77 123 77 270z" />
    <glyph glyph-name="uniE619" unicode="&#xe619;" 
d="M722 765q29 0 49.5 -20t20.5 -49v-342l7 16l-397 -403l17 7h-281q-29 0 -49.5 20.5t-20.5 49.5v745l-23 -24h677zM21 812v-23v-745q0 -48 34.5 -82t82.5 -34h281h9l7 7l397 402l7 7v10v342q0 48 -34 82t-83 34h-677h-24zM776 223l-17 -16l17 -17l93 -93l17 -16l16 16
l70 70l17 17l-17 16l-93 93l-17 17l-16 -17zM846 260l93 -93v33l-70 -70h33l-93 93v-33l70 70h-33zM519 -33l-5 -5l-2 -7l-23 -116l-7 -34l35 7l116 23l7 1l5 5l257 256l17 17l-17 16l-93 93l-17 17l-16 -17zM776 190l93 -93v33l-257 -256l12 7l-117 -24l28 -27l23 116
l-6 -12l257 256h-33zM427 214q13 0 22 -9t9 -22v-9q0 -13 -9 -22.5t-22 -9.5q-14 0 -23 9.5t-9 22.5v9q0 13 9 22t23 9zM278 468q1 -2 2 -5.5t8 -10t17.5 -6.5t17 5.5t8.5 11.5l1 5q-2 54 23 79t76 23q67 -8 70 -76q-5 -30 -51 -79q-60 -61 -60 -109v-33q0 -2 1 -5.5t7.5 -9
t16.5 -5.5q4 0 8 1.5t6.5 3t4.5 3.5t3 4l2 4q1 2 1 3v1v23q0 40 58 96q61 56 61 102q-5 127 -133 132q-148 2 -148 -158z" />
    <glyph glyph-name="uniE61A" unicode="&#xe61a;" 
d="M598 654q-40 64 -100 64t-100 -64l-373 -602q-40 -65 -12.5 -116.5t103.5 -52.5h775q78 -2 105 40.5t-13 107.5v1h-1v1l-1 1v1h-1v1l-1 1v1l-1 1v1l-1 1v1h-1v1l-1 1v1l-1 1l-1 1v1l-1 1l-8 13q-6 9 -16 11.5t-18.5 -3t-11 -15.5t2.5 -19l1 -1l1 -2v-1h1v-1l1 -1v-1h1v-1
l1 -1v-1l1 -1l1 -2v0l2 -2l1 -2l1 -2l1 -2l1 -2l1 -1l1 -1l1 -1v-2h1v-1l1 -1l1 -2q23 -38 11.5 -55t-60.5 -16h-775q-47 1 -61 26.5t11 65.5l373 602q26 41 58.5 41t57.5 -41l301 -472q6 -9 16 -11t18.5 3.5t11 16t-3.5 18.5zM475 192q0 -10 7 -17.5t17.5 -7.5t17.5 7.5
t7 17.5v320q0 11 -7 18t-17.5 7t-17.5 -7t-7 -18v-320zM474 35q1 -10 8 -17.5t17.5 -7.5t17.5 7.5t7 18.5v64q0 10 -7.5 17.5t-18 7t-17.5 -7.5t-7 -18v-64z" />
    <glyph glyph-name="uniE61B" unicode="&#xe61b;" 
d="M1024 300q0 139 -68.5 257t-186.5 186.5t-257 68.5t-257 -68.5t-186.5 -186.5t-68.5 -257t68.5 -257t186.5 -186.5t257 -68.5q179 0 319 111q8 7 9 17t-5.5 18.5t-16.5 9.5t-18 -6q-126 -100 -288 -100q-94 0 -179.5 36.5t-147.5 98.5t-98.5 147.5t-36.5 179.5
t36.5 179.5t98.5 147.5t147.5 98.5t179.5 36.5t179.5 -36.5t147.5 -98.5t98.5 -147.5t36.5 -179.5q0 -132 -70 -244q-5 -9 -2.5 -19t11 -15.5t18.5 -3t16 11.5q77 123 77 270zM332 148q-7 -7 -7 -17.5t7.5 -17.5t17.5 -7t17 7l350 357q8 7 8 17.5t-7.5 17.5t-18 7t-17.5 -7z
M682 113q7 -7 17.5 -7t18 7t7.5 17.5t-8 17.5l-350 357q-7 7 -17 7t-17.5 -7t-7.5 -17.5t7 -17.5z" />
    <glyph glyph-name="uniE61C" unicode="&#xe61c;" 
d="M794 495q0 122 -86.5 209t-208.5 87t-208 -87t-86 -209t86 -209t208 -87t208.5 87t86.5 209zM256 495q0 101 71 172.5t172 71.5t172 -71.5t71 -172.5t-71 -172.5t-172 -71.5t-172 71.5t-71 172.5zM0 -186v-26h26h460h512h26v26q0 85 -41.5 165.5t-111 140t-164 95.5
t-195.5 36q-25 0 -49 -2q-7 -1 6 -9q17 -11 17 -19q8 1 13 -10.5t13 -11.5q91 0 176.5 -32t147.5 -85t99.5 -123.5t37.5 -144.5l25 25h-512h-460l25 -25q0 102 60 190t164 141q10 4 13 14.5t-1.5 20t-14.5 12.5t-20 -1q-116 -59 -184 -159.5t-68 -217.5z" />
    <glyph glyph-name="uniE61D" unicode="&#xe61d;" 
d="M853 279q9 0 15.5 6t6.5 15t-6.5 15t-15.5 6h-682q-9 0 -15.5 -6t-6.5 -15t6.5 -15t15.5 -6h682zM491 -41q0 -9 6 -15.5t15 -6.5t15 6.5t6 15.5v682q0 9 -6 15.5t-15 6.5t-15 -6.5t-6 -15.5v-682z" />
    <glyph glyph-name="uniE61E" unicode="&#xe61e;" 
d="M786.5 164q15.5 0 26.5 29.5t11 71t-11 71t-26.5 29.5t-26.5 -29.5t-11 -71t11 -71t26.5 -29.5zM462.5 114q15.5 0 26.5 25.5t11 62t-11 62t-26.5 25.5t-26.5 -25.5t-11 -62t11 -62t26.5 -25.5zM0 239q0 -92 40.5 -175.5t109.5 -144t163.5 -96t198.5 -35.5t198.5 35.5
t163.5 96t109.5 144t40.5 175.5t-40.5 176t-109.5 144t-163.5 95.5t-198.5 35.5h5q-3 2 -11 10q-26 23 -47 37q-85 54 -222 54q-10 0 -17.5 -7.5t-7.5 -18t7.5 -17.5t17.5 -7q123 0 195 -47q3 -2 21 -16.5t34.5 -26t24.5 -11.5q126 0 232.5 -53.5t168 -146t61.5 -201
t-61.5 -201t-168 -146.5t-232.5 -54t-232.5 54t-168 146.5t-61.5 200.5q0 109 63 202.5t172 146.5q9 5 12.5 15t-1 19t-14.5 12.5t-19 -1.5q-121 -59 -192 -164.5t-71 -229.5z" />
    <glyph glyph-name="uniE61F" unicode="&#xe61f;" 
d="M1024 300q0 139 -68.5 257t-186.5 186.5t-257 68.5t-257 -68.5t-186.5 -186.5t-68.5 -257t68.5 -257t186.5 -186.5t257 -68.5q172 0 309 104q8 6 9.5 16t-4.5 18t-16 9.5t-18 -4.5q-124 -94 -280 -94q-94 0 -180 36.5t-148 98.5t-98.5 148t-36.5 180t36.5 180t98.5 148
t148 98.5t180 36.5t180 -36.5t148 -98.5t98.5 -148t36.5 -180q0 -144 -81 -262q-5 -8 -3.5 -18t10 -15.5t18.5 -4t16 10.5q89 130 89 289zM488 202q0 -10 7 -17t17 -7t17 7t7 17v366q0 10 -7 17.5t-17 7.5t-17 -7.5t-7 -17.5v-366zM482 340q-7 8 -17 8.5t-17.5 -6
t-8.5 -16.5t6 -18l171 -195q6 -7 16 -8t18 6t8.5 17t-6.5 17z" />
    <glyph glyph-name="uniE620" unicode="&#xe620;" 
d="M0 377v-175q0 -26 18.5 -45t45.5 -19h165l-15 6l255 -256q23 -22 45 -13t22 41v747q0 32 -22 41t-45 -14l-255 -256l15 7h-165q-27 0 -45.5 -19t-18.5 -45zM229 398h9l6 6l255 256q3 3 5 4q-3 -1 -7 0.5t-5 4.5q1 -2 1 -6v-747q0 -4 -1 -6q1 3 5 4.5t7 0.5q-2 0 -5 3
l-255 256l-6 7h-9h-165q-9 0 -15 6t-6 15v175q0 9 6 15t15 6h165zM821 276.5q0 89.5 -59.5 153t-143.5 63.5q-9 0 -15 -6.5t-6 -15.5t6 -15t15 -6q66 0 113 -51t47 -123t-47 -122.5t-113 -50.5q-9 0 -15 -6.5t-6 -15.5t6 -15t15 -6q84 0 143.5 63.5t59.5 153zM1003 285
q0 117 -67.5 215t-179.5 147q-8 3 -16 0t-11.5 -11t-0.5 -16.5t11 -11.5q101 -44 161 -131.5t60 -191.5q0 -100 -54.5 -184t-147.5 -131q-8 -4 -10.5 -12t1.5 -16t12 -11t16 1q104 52 165 146.5t61 206.5z" />
    <glyph glyph-name="uniE621" unicode="&#xe621;" 
d="M128 -117q-32 0 -54.5 22.5t-22.5 55.5v700l-25 -26h870q32 0 54.5 -23t22.5 -55v-584q0 -10 7.5 -18t18 -8t18 8t7.5 18v584q0 54 -37.5 92t-90.5 38h-870q-11 0 -18.5 -7.5t-7.5 -18.5v-700q0 -54 37.5 -92t90.5 -38h755q11 0 18.5 7.5t7.5 18t-7.5 18.5t-18.5 8h-755z
M282 557q0 -11 7.5 -18.5t18 -7.5t18 7.5t7.5 18.5v195q0 10 -7.5 18t-18 8t-18 -8t-7.5 -18v-195zM717 570q0 -11 7.5 -18.5t18 -7.5t18 7.5t7.5 18.5v195q0 10 -7.5 18t-18 8t-18 -8t-7.5 -18v-195zM333 401q10 0 17.5 8t7.5 18.5t-7.5 18t-17.5 7.5h-141
q-11 0 -18.5 -7.5t-7.5 -18t7.5 -18.5t18.5 -8h141zM614 401q11 0 18.5 8t7.5 18.5t-7.5 18t-18.5 7.5h-140q-11 0 -18.5 -7.5t-7.5 -18t7.5 -18.5t18.5 -8h140zM870 401q11 0 18.5 8t7.5 18.5t-7.5 18t-18.5 7.5h-140q-11 0 -18.5 -7.5t-7.5 -18t7.5 -18.5t18.5 -8h140z
M333 246q10 0 17.5 7.5t7.5 18t-7.5 18.5t-17.5 8h-141q-11 0 -18.5 -8t-7.5 -18.5t7.5 -18t18.5 -7.5h141zM614 246q11 0 18.5 7.5t7.5 18t-7.5 18.5t-18.5 8h-140q-11 0 -18.5 -8t-7.5 -18.5t7.5 -18t18.5 -7.5h140zM870 246q11 0 18.5 7.5t7.5 18t-7.5 18.5t-18.5 8h-140
q-11 0 -18.5 -8t-7.5 -18.5t7.5 -18t18.5 -7.5h140zM333 90q10 0 17.5 7.5t7.5 18.5t-7.5 18.5t-17.5 7.5h-141q-11 0 -18.5 -7.5t-7.5 -18.5t7.5 -18.5t18.5 -7.5h141zM614 90q11 0 18.5 7.5t7.5 18.5t-7.5 18.5t-18.5 7.5h-140q-11 0 -18.5 -7.5t-7.5 -18.5t7.5 -18.5
t18.5 -7.5h140zM870 90q11 0 18.5 7.5t7.5 18.5t-7.5 18.5t-18.5 7.5h-140q-11 0 -18.5 -7.5t-7.5 -18.5t7.5 -18.5t18.5 -7.5h140z" />
    <glyph glyph-name="uniE622" unicode="&#xe622;" 
d="M307 710v-858h51v858h-51zM640 710v-858h51v858h-51zM896 -97h-768q-32 0 -54.5 22.5t-22.5 54.5v742l-25 -25h870q32 0 54.5 -22.5t22.5 -54.5v-655q0 -10 7.5 -17.5t18 -7.5t18 7.5t7.5 17.5v655q0 53 -37.5 90.5t-90.5 37.5h-870q-11 0 -18.5 -7.5t-7.5 -18.5v-742
q0 -53 37.5 -90.5t90.5 -37.5h768q11 0 18.5 7.5t7.5 18t-7.5 18t-18.5 7.5z" />
    <glyph glyph-name="uniE623" unicode="&#xe623;" 
d="M896 -97h-768q-32 0 -54.5 22.5t-22.5 54.5v742l-25 -25h870q32 0 54.5 -22.5t22.5 -54.5v-655q0 -10 7.5 -17.5t18 -7.5t18 7.5t7.5 17.5v655q0 53 -37.5 90.5t-90.5 37.5h-870q-11 0 -18.5 -7.5t-7.5 -18.5v-742q0 -53 37.5 -90.5t90.5 -37.5h768q11 0 18.5 7.5t7.5 18
t-7.5 18t-18.5 7.5zM230 710v-858h52v858h-52zM486 710v-858h52v858h-52zM742 710v-858h52v858h-52z" />
    <glyph glyph-name="uniE624" unicode="&#xe624;" 
d="M856 251l-399 -372q-22 -21 -54 -21t-54 22l-262 254q-22 21 -22 51t21 52l480 491l-17 -7h329q30 0 51.5 -21.5t21.5 -52.5v-317q0 -10 7 -17t17 -7t17.5 7t7.5 17v317q0 51 -36 86.5t-86 35.5h-329q-11 0 -18 -7l-480 -491q-35 -36 -34.5 -86.5t36.5 -85.5l262 -254
q36 -35 87.5 -35.5t87.5 33.5l399 372q8 7 8 17t-7 17.5t-17 7.5t-17 -6zM744 404q45 0 77 32t32 77.5t-32 77.5t-77.5 32t-77.5 -32t-32 -77.5t32 -77.5t78 -32zM744 452q-26 0 -43.5 18t-17.5 43.5t17.5 43t43 17.5t43.5 -17.5t18 -43t-18 -43.5t-43 -18z" />
    <glyph glyph-name="uniE625" unicode="&#xe625;" 
d="M538 239q97 0 165.5 69.5t68.5 167.5t-68.5 167.5t-166 69.5t-166 -69.5t-68.5 -167.5t68.5 -167.5t166.5 -69.5zM538 282q-80 0 -136 56.5t-56 137t56 137.5t135.5 57t136 -57t56.5 -137.5t-56.5 -137t-135.5 -56.5zM1002 -212q0 100 -39 191.5t-104.5 157.5t-156 105.5
t-190 39.5t-190 -39.5t-156 -105.5t-104 -157.5t-38.5 -191.5h42q0 92 35.5 175.5t95 144t142.5 96t173.5 35.5t173.5 -35.5t142.5 -96t95 -144t35.5 -175.5h43zM234 239q36 0 61.5 25.5t25.5 62t-25.5 62t-61.5 25.5t-61.5 -25.5t-25.5 -62t25.5 -62t61.5 -25.5zM234 282
q-19 0 -32 13t-13 31.5t13 32t31.5 13.5t31.5 -13.5t13 -32t-13 -31.5t-31 -13zM831 292q3 1 17.5 5.5t21.5 7.5q1 0 2 1q16 5 35 12l15 5l14 5v15v187v13l-12 6q-4 2 -11 5q-13 7 -24 13q-2 1 -4 1q-13 7 -21 12q-4 2 -6 4q2 -2 4 -7q-44 103 -135.5 169t-194.5 66
q-96 0 -177 -47.5t-128 -129.5t-47 -178q0 -35 6 -69l42 8q-6 30 -6 61q0 129 91 221t219 92q90 0 171 -59t120 -151q3 -7 9.5 -11t33.5 -18q1 -1 3 -2q12 -6 25 -13q7 -3 12 -5l-12 19v-187l14 20q-6 -2 -16 -5q-18 -7 -34 -12q-1 -1 -3 -1q-21 -8 -33 -13q-7 -3 -11 -4
q-3 -2 -5 -3q-1 -1 -4 -2q-15 -8 -7 -24q5 -9 19 -9.5t17 2.5z" />
    <glyph glyph-name="uniE626" unicode="&#xe626;" 
d="M24 546h878q30 0 51.5 -21.5t21.5 -51.5v-440l25 24h-147l25 -24v97v25h-25h-682h-25v-25v-97l25 24h-49q-30 0 -51.5 21.5t-21.5 52.5v440zM24 595h-24v-24v-440q0 -51 35.5 -87t86.5 -36h49h24v25v97l-24 -24h682l-24 24v-97v-25h24h147h24v25v440q0 50 -35.5 86
t-86.5 36h-878zM756 -188l24 25h-536l24 -25v224q0 10 -7 17t-17 7t-17.5 -7t-7.5 -17v-224q0 -10 7.5 -17t17.5 -7h536q10 0 17.5 7t7.5 17v224q0 10 -7.5 17t-17.5 7t-17 -7t-7 -17v-224zM207 375h317v49h-317v-49zM219 571v195l-24 -24h634l-24 24v-195h48v195v25h-24
h-634h-24v-25v-195h48z" />
    <glyph glyph-name="uniE627" unicode="&#xe627;" 
d="M301 394l216 -192q16 -14 33 0q6 5 17 14q21 17 44 36q73 61 136 111q4 4 9 8q90 73 142 111q30 23 45 33q7 5 9 6q-2 -1 -6 -1q-10 -1 -17.5 6.5t-6.5 18.5v-2v-1v-2v-1v-2v-1l-1 -2v-1v-2v-1v-1v-2v-1v-1v-2v-1v-1v-2v-1v-1v-2v-1v-1v-2v-1v-1v-1l-1 -1v-2v-1v-1v-1v-1
v-2v-1v-1v-1v-1v-1v-1v-2v-1v-1v-1v-1v-1v-1v-1v-1v-1v-1v-1l-1 -1v-1v-1v-1v-1v-1v-1v-1v-1v-1v-1v-1v-1v-1v-1v-1v-1v-1v-1v-1v-1v-1v-1v-1v-1v-1v-1v-1h-1v-1v-1v-1v-1v-1v-1v-1v-1v-1v-1v-1v-1v-1v-1v-1v-1v-1v-1v-1v-1v-1v-1v-1v-1v-1v-1v-1v-1l-1 -1v-1v-1v-1v-1v-1
v-1v-1v-1v-1v-1v-1v-1v-1v-1v-1v-1v-1v-1v-1v-1v-1v-1v-1v-1v-1v-1v-1h-1v-1v-1v-1v-1v-1v-1v-1v-1v-1v-1v-1v-1v-1v-1v-1v-1v-1v-1v-1v-1v-1v-1v-1v-1v-1v-1v-1v-1l-1 -1v-1v-1v-1v-1v-1v-1v-1v-1v-1v-1v-1v-1v-1v-1v-1v-1v-1v-1v-1v-1v-1v-1v-1v-1v-1v-1v-1l-1 -1v-1v-1
v-1v-1v-1v-1v-1v-1v-1v-1v-1v-1v-1v-1v-1v-1v-1v-1q-3 -45 -5 -149l1 7q-2 -5 -5 -14q-8 -18 -17 -38q-30 -63 -70 -116q-126 -165 -301 -165q-10 0 -17.5 -7t-7.5 -17.5t7.5 -18t17.5 -7.5q200 0 341 185q43 57 75 125q10 21 18 41q4 10 6 16q1 3 1 7q5 46 6 149l8 224
q0 11 -8 19t-19 8q-6 -1 -13 -4q-6 -2 -16 -9q-17 -11 -49 -35q-52 -39 -142 -112l-10 -8q-62 -50 -136 -111q-23 -19 -44 -37q-11 -9 -17 -14h32l-216 191q-8 7 -18 6.5t-17 -8.5t-6.5 -18t8.5 -17zM503 791q-2 -2 -6 -4q-8 -6 -17 -11q-28 -19 -55 -34q-17 -10 -32 -18
q-35 -18 -58 -25q-35 -11 -108 -21q-45 -7 -99 -12q-17 -2 -33 -3q-8 -1 -13 -1l-24 -2l1 -24l17 -466v-4l1 -3q2 -6 6 -16q8 -20 18 -41q33 -68 76 -125q141 -185 340 -185v50q-175 0 -300 165q-41 53 -71 116q-9 20 -16 38q-4 9 -5 14l1 -7l-17 466l-23 -26q5 1 13 1
q16 2 33 3q56 6 102 12q77 11 116 23q27 8 66 29q16 8 34 18q28 16 57 36q10 6 18 11q4 3 6 5zM495 750q2 -2 6 -5q9 -5 18 -11q29 -20 57 -36q18 -10 34 -18q39 -21 66 -29q60 -19 199 -33q10 -1 18 5.5t9.5 17t-5 18.5t-17.5 9q-134 14 -189 31q-23 7 -58 25q-15 8 -32 18
q-26 15 -55 34q-9 5 -17 11q-4 2 -6 4q-8 6 -18.5 4t-16.5 -10.5t-4 -18.5t11 -16z" />
    <glyph glyph-name="uniE628" unicode="&#xe628;" 
d="M151 256v-328q0 -27 19.5 -46t46.5 -19h568q27 0 46 19t19 46v317h-44v-317q0 -9 -6 -15.5t-15 -6.5h-568q-9 0 -15.5 6.5t-6.5 15.5v328h-44zM544 -115v622h-43v-622h43zM86 485h742q27 0 46.5 -19t19.5 -46v-153l21 22h-742q-27 0 -46 19t-19 46v153zM86 529h-22v-22
v-153q0 -45 32 -77t77 -32h742h22v22v153q0 45 -32 77t-77 32h-742zM457 551h131l-22 21v-65l22 22h-131l22 -22v65zM457 594h-22v-22v-65v-22h22h131h22v22v65v22h-22h-131zM552 561q1 2 5 7q6 10 14 21q23 34 45 63q13 16 24 30q20 24 36.5 39t20.5 15q26 0 64 -24t60 -54
q9 -12 -10 -53q-4 -8 -1 -16.5t11.5 -12.5t17 -1t11.5 11q31 65 6 98q-29 39 -75.5 67.5t-83.5 28.5q-32 0 -91 -70q-12 -15 -25 -32q-22 -29 -46 -64q-8 -11 -15 -22q-3 -5 -5 -8q-5 -7 -3 -16t9.5 -14t16.5 -3t14 10zM538 584q-2 3 -5 8q-7 11 -15 22q-24 35 -46 64
q-13 17 -25 32q-59 70 -91 70q-37 0 -83.5 -28.5t-75.5 -67.5q-25 -33 5 -97q9 -19 23 -41q12 -19 26 -38q7 -9 12 -15l33 28q-4 5 -10 14q-13 17 -24 34q-13 20 -20 37q-19 40 -10 52q22 30 60 54t64 24q4 0 20.5 -15t36.5 -39q11 -14 24 -30q22 -29 45 -63q8 -11 14 -21
q4 -5 5 -7z" />
    <glyph glyph-name="uniE629" unicode="&#xe629;" 
d="M680 -151q-9 0 -23 -1q-29 0 -57 -1q-40 -1 -74 -1q-67 -1 -105 -1q-22 1 -33 1q-5 1 -7 1q1 0 2 -1q14 -6 14 -21v93v77v42q0 11 -8 18q-4 3 -9 8q-12 11 -25 24q-40 40 -74 81q-68 84 -92 154q-12 35 -12 65q0 96 47.5 178t129 129.5t178 47.5t178 -47.5t129 -129.5
t47.5 -178q0 -27 -11 -58q-25 -73 -105 -161q-37 -41 -82 -81q-14 -12 -27 -23q-6 -5 -10 -8q-9 -7 -9 -19v-114l24 24h-281q-10 0 -17.5 -7t-7.5 -17.5t7.5 -17.5t17.5 -7h281q10 0 17 7t7 18v114l-9 -20q4 4 11 9q14 12 28 25q47 41 86 84q87 96 116 178q13 39 13 74
q0 110 -54 203t-147 147t-202.5 54t-202.5 -54t-147 -147t-54 -203q0 -38 15 -81q27 -78 101 -169q35 -43 77 -85l25 -25q7 -6 10 -9l-8 19v-42v-77v-93q0 -17 16 -24q3 -1 7 -2q5 -1 13 -1q13 -1 36 -2q39 0 107 1q34 0 74 1q29 1 57 2h23q10 1 17 8t7 17.5t-7.5 17
t-17.5 6.5zM380 260l122 -122q7 -7 16.5 -7.5t17.5 6.5l122 110q7 6 8 16.5t-6 18t-17 8t-18 -6.5l-122 -110l34 -1l-123 122q-7 8 -17 8t-17 -7.5t-7 -17.5t7 -17zM495 143v-208h49v208h-49z" />
    <glyph glyph-name="uniE62A" unicode="&#xe62a;" horiz-adv-x="1025" 
d="M331.5 480.5q-8.5 -8.5 -8.5 -20t9 -20.5l321 -321q9 -9 20.5 -9t20 8.5t8.5 20t-8 20.5l-322 322q-9 8 -20.5 8t-20 -8.5zM96 752l-36 -36q-60 -60 -60 -145t60 -145l127 -127q46 -46 110.5 -56.5t120.5 16.5q1 0 1 0.5t1 0.5h1q4 2 7 6q9 8 9 20t-9 20q-14 15 -33 6
q-42 -20 -90 -12t-82 43l-120 119q-45 45 -45 109t45 109l29 29q45 45 109 45t109 -45l119 -120q35 -35 43 -83.5t-13 -91.5v0q-7 -18 6 -31q9 -8 21 -8t20 8q4 4 6 8q28 57 18 122t-57 112l-127 127q-60 60 -145 60t-145 -60zM963 -115l-36 -36q-60 -60 -144.5 -60
t-144.5 60l-127 126q-47 47 -57.5 111.5t17.5 120.5v1l0.5 0.5t0.5 1.5q2 4 5 7q8 8 20 8t21 -8q14 -15 5 -33q-20 -42 -11.5 -90t42.5 -82l120 -120q45 -45 108.5 -45t108.5 45l29 29q45 45 45 108.5t-45 108.5l-119 120q-35 35 -84 43t-91 -13v0q-18 -7 -31 6q-9 8 -9 20
t9 21q4 3 7 5q57 29 122.5 18.5t112.5 -57.5l126 -127q60 -60 60 -144.5t-60 -144.5z" />
    <glyph glyph-name="uniE62B" unicode="&#xe62b;" 
d="M853 279q9 0 15.5 6t6.5 15t-6.5 15t-15.5 6h-682q-9 0 -15.5 -6t-6.5 -15t6.5 -15t15.5 -6h682z" />
    <glyph glyph-name="uniE62C" unicode="&#xe62c;" 
d="M819 212q-25 46 -67 74q-45 30 -97 44q-56 14 -131 17v327q40 -1 77 -11q44 -11 76 -36q31 -25 49 -63t18 -94q0 -11 7.5 -18.5t18 -7.5t18 7.5t7.5 18.5q0 67 -23 116t-63 81q-40 31 -95 46q-43 11 -90 13v48q0 10 -7.5 17.5t-18 7.5t-18 -7.5t-7.5 -17.5v-48
q-38 -2 -70 -10q-47 -11 -84.5 -33.5t-58.5 -51t-32.5 -57.5t-12.5 -58q-1 -18 0.5 -36t10.5 -44.5t25.5 -48.5t48.5 -42.5t75 -31.5q48 -12 98 -16v-375q-43 4 -80 15q-53 16 -91 49q-39 32 -61 79t-23 111q-1 10 -8.5 17.5t-18.5 6.5q-10 0 -17.5 -7.5t-7.5 -18.5
q2 -73 29 -131q27 -57 74 -96q46 -39 109 -59q46 -14 95 -17v-69q0 -11 7.5 -18t18.5 -7t18 7t7 18v68q46 1 97 10q58 11 107 38q49 28 81 74q34 48 34 120q0 54 -24 100zM473 349q-44 3 -85 14q-38 9 -64 26.5t-38.5 39t-17 42t-2.5 42.5q0 10 2 21t11.5 32t24 38.5t44 35
t67.5 26.5q26 7 58 8v-325zM767 21q-25 -36 -65 -59q-41 -23 -90 -32q-45 -8 -88 -9v374q67 -2 118 -15q43 -10 81 -36q32 -21 51 -56q18 -34 18 -76q0 -56 -25 -91z" />
    <glyph glyph-name="uniE62D" unicode="&#xe62d;" 
d="M875 316.5q0 -8.5 -6 -14.5t-14 -6h-307v-307q0 -9 -6 -15t-14.5 -6t-14.5 6t-6 15v307h-308q-8 0 -14 6t-6 14.5t6 14.5t14 6h308v307q0 9 6 15t14.5 6t14.5 -6t6 -15v-307h307q8 0 14 -6t6 -14.5z" />
    <glyph glyph-name="uniE62E" unicode="&#xe62e;" 
d="M982 501q-39 91 -109.5 161.5t-162.5 109.5q-93 40 -196 40h-2h-2q-103 0 -196 -40q-92 -39 -162.5 -109.5t-109.5 -161.5q-40 -95 -40 -199t40 -198q39 -92 109.5 -162.5t162.5 -109.5q93 -39 196 -40h1h1h1h1q103 1 196 40q92 39 162.5 109.5t109.5 162.5q40 94 40 198
t-40 199zM180 634q65 65 149 100q29 12 59 21q-38 -38 -67 -98q-19 -38 -34 -82q-67 18 -119 45zM80 485q24 56 60 103q59 -32 136 -52q-27 -100 -29 -213h-203q3 84 36 162zM140 16q-36 48 -60 104q-33 77 -36 162h203q2 -114 29 -213q-77 -21 -136 -53zM329 -130
q-84 36 -149 101q-6 6 -12 13q52 28 119 45q15 -44 34 -82q29 -59 67 -97q-30 8 -59 20zM492 -165q-32 7 -62 32q-41 34 -73 98q-17 34 -30 74q79 16 165 18v-222zM492 98q-92 -2 -177 -20q-25 95 -27 204h204v-184zM492 323h-204q2 108 27 203q85 -18 177 -20v-183z
M492 547q-86 2 -165 18q13 40 30 74q32 64 73 98q30 26 62 32v-222zM695 734q84 -35 149 -100l12 -14q-52 -27 -119 -45q-15 44 -34 82q-29 60 -67 98q30 -9 59 -21zM532 769q32 -6 62 -32q41 -34 73 -98q17 -34 30 -74q-79 -16 -165 -18v222zM532 506q93 2 177 20
q25 -95 27 -203h-204v183zM532 282h204q-2 -109 -27 -204q-85 18 -177 20v184zM594 -133q-30 -25 -62 -32v222q86 -2 165 -18q-13 -40 -30 -74q-32 -64 -73 -98zM844 -29q-65 -65 -149 -101q-29 -12 -59 -20q38 38 67 97q19 38 34 82q67 -17 119 -45q-6 -7 -12 -13zM944 120
q-24 -56 -60 -104q-59 32 -136 53q27 99 29 213h203q-3 -85 -36 -162zM777 323q-2 113 -29 213q77 20 136 52q36 -47 60 -103q33 -78 36 -162h-203z" />
    <glyph glyph-name="uniE62F" unicode="&#xe62f;" 
d="M1007 -62q-27 -39 -70 -84q-63 -65 -97 -65h-1h-1q-75 2 -162 43q-161 77 -358 274t-274 358q-41 88 -43 162v1q-1 34 65 98q45 44 84 70q26 19 54 16t42 -22q8 -11 68 -101.5t70 -107.5q20 -31 -5 -78q-10 -20 -53 -94q44 -63 137 -157q49 -48 91.5 -84.5t55.5 -45.5
t19 -13q7 -4 9.5 -12.5t-2 -15.5t-12.5 -9.5t-16 2.5q-59 35 -174 149q-115 116 -149 174q-6 11 0 21q51 91 58 104q14 26 7 37q-10 16 -70 106t-67 101q-4 5 -14 5.5t-26 -8.5q-36 -25 -78 -66q-24 -23 -37 -40t-14.5 -21.5t-1.5 -6.5q2 -67 39 -146q74 -155 266 -347
t346 -266q80 -37 147 -39q4 0 15 6q21 14 53 47q41 43 66 78q9 16 8.5 26t-5.5 14q-12 8 -102.5 68t-104.5 69q-9 5 -31 -4q-3 -1 -6 -3q-8 -4 -16 -1.5t-12 10t-1.5 15.5t10.5 12q4 3 9 5q41 17 68 1q15 -9 105.5 -69t104.5 -70q20 -14 22.5 -42t-16.5 -54zM1000 767v-259
q0 -8 -6 -14t-14.5 -6t-14.5 6t-6 14v189l-226 -227q-6 -6 -14.5 -6t-14.5 6t-6 14.5t6 14.5l226 227h-188q-9 0 -15 6t-6 14.5t6 14.5t15 6h258z" />
    <glyph glyph-name="uniE630" unicode="&#xe630;" 
d="M1002 591h-234l-76 113q-6 9 -17 9h-326q-11 0 -17 -9l-76 -113h-234q-8 0 -14 -6t-6 -15v-652q0 -9 6 -15t14 -6h980q8 0 14 6t6 15v652q0 9 -6 15t-14 6zM981 -62h-938v612h224q11 0 17 9l76 113h304l76 -113q6 -9 17 -9h224v-612zM777 264q0 -18 -2 -36q-1 -8 -8 -13
t-15.5 -4t-13.5 8t-4 15q2 15 2 30q0 93 -65.5 159t-158.5 66t-158.5 -66t-65.5 -159t65.5 -158.5t158.5 -65.5q87 0 151 59q7 6 15.5 5.5t14 -7t5 -15t-6.5 -13.5q-76 -70 -179 -70q-110 0 -187.5 77.5t-77.5 187.5t77.5 188t187.5 78t187.5 -78t77.5 -188z" />
    <glyph glyph-name="uniE631" unicode="&#xe631;" 
d="M861 102l147 388q3 10 -3 18.5t-17 8.5h-489q-9 0 -15 -6t-6 -14.5t6 -14.5t15 -6h460l-131 -346h-370l-140 562v1q-13 45 -36 65q-27 25 -76 25h-136q-1 0 -2 -1q-16 0 -27.5 -12t-11.5 -28q0 -17 12 -29t29 -12t29 12t12 29h95q33 0 49 -14q14 -13 24 -47l163 -658
q6 -22 10 -34t16 -28t29 -25q-19 -22 -19 -51q0 -34 24 -58t58 -24t58 24t24 58q0 22 -11 40h123q-10 -18 -10 -40q0 -34 23.5 -58t57.5 -24t58 24t24 58t-24 57.5t-58 23.5h-4v0h-2h-265q-20 0 -32.5 3.5t-20 14t-11 19.5t-8.5 30l-14 56h374q14 0 19 13zM866 -115
q0 -17 -12 -29t-29 -12t-29 12t-12 29t12 28.5t29 11.5t29 -11.5t12 -28.5zM560 -75q17 0 29 -11.5t12 -28.5t-12 -29t-29 -12t-29 12t-12 29t12 28.5t29 11.5z" />
    <glyph glyph-name="uniE632" unicode="&#xe632;" 
d="M874 557l-389 -506q-5 -7 -14 -8h-2q-8 0 -14 6l-210 199l-33 -42q-5 -6 -13.5 -7.5t-15 4t-7.5 14t4 14.5l46 60q6 8 15 8.5t16 -5.5l210 -200l375 488q5 7 13.5 8t15 -4t7.5 -13.5t-4 -15.5z" />
    <glyph glyph-name="uniE633" unicode="&#xe633;" 
d="M854 526l-34 -664q-2 -21 -18 -36t-37 -15h-475q-22 0 -38 15t-17 36v1l-35 663q-1 9 5 15t14.5 6.5t14.5 -5t7 -14.5l34 -663q1 -5 5.5 -9t9.5 -4h475q5 0 9 4t5 9l34 663q1 9 7.5 14.5t14.5 5t14 -6.5t5 -15zM936 670.5q0 -8.5 -6 -14.5t-14 -6h-266q-9 0 -15 6t-6 14
v62q0 8 -6 14t-14 6h-164q-8 0 -14 -6t-6 -14v-62q0 -8 -6 -14t-15 -6h-265q-9 0 -15 6t-6 14.5t6 14.5t15 6h245v41q0 25 18 43t43 18h164q25 0 43 -18t18 -43v-41h246q8 0 14 -6t6 -14.5zM640 507v-573q0 -8 -6 -14t-14.5 -6t-14.5 6t-6 14v573q0 8 6 14t14.5 6t14.5 -6
t6 -14zM456 507v-573q0 -8 -6 -14t-14.5 -6t-14.5 6t-6 14v573q0 8 6 14t14.5 6t14.5 -6t6 -14z" />
    <glyph glyph-name="uniE634" unicode="&#xe634;" 
d="M889 480l-35 -623q-2 -22 -18 -36.5t-37 -14.5h-475q-21 0 -37 14.5t-18 36.5l-35 623q0 8 5.5 14.5t14 7t15 -5.5t6.5 -14l35 -622q0 -5 4.5 -9t9.5 -4h475q5 0 9.5 4t4.5 9l35 622q0 8 6.5 14t15 5.5t14 -7t5.5 -14.5zM859 742l-228 -78q-8 -3 -15.5 1t-10.5 12l-20 58
q-3 8 -10 12q-6 4 -12 2l-140 -48q-6 -3 -9 -9q-3 -8 -1 -16l20 -58q3 -8 -0.5 -15.5t-11.5 -10.5l-228 -78q-4 -1 -7 -1q-15 0 -19 13q-3 8 0.5 16t11.5 10l209 72l-13 39q-8 23 1 45q10 23 33 31l141 48q23 8 45 -4q21 -12 29 -35l13 -39l209 72q8 2 15.5 -1.5t10 -11.5
t-1 -15.5t-11.5 -10.5zM674 358v-429q0 -9 -6 -15t-14.5 -6t-14.5 6t-6 15v429q0 9 6 15t14.5 6t14.5 -6t6 -15zM490 358v-429q0 -9 -6 -15t-14.5 -6t-14.5 6t-6 15v429q0 9 6 15t14.5 6t14.5 -6t6 -15z" />
    <glyph glyph-name="uniE635" unicode="&#xe635;" 
d="M266.5 181q-50.5 0 -86.5 -36t-36 -87t36 -87t86.5 -36t86.5 36t36 87t-36 87t-86.5 36zM266.5 -24q-33.5 0 -57.5 24t-24 58t24 58t57.5 24t57.5 -24t24 -58t-24 -58t-57.5 -24zM798.5 -65q-50.5 0 -86.5 36t-36 87t36 87t86.5 36t86.5 -36t36 -87t-36 -87t-86.5 -36z
M798 140q-34 0 -57.5 -24t-23.5 -58t23.5 -58t57.5 -24t58 24t24 58t-24 58t-58 24zM594 529v-451v450v1zM1023 295v-237q0 -9 -6 -15t-14 -6h-41q-9 0 -15 6t-6 14.5t6 14.5t15 6h20v212l-136 218h-211v-450q0 -9 -6 -15t-15 -6h-163q-8 0 -14 6t-6 14.5t6 14.5t14 6h143
v573h-552v-573h51q9 0 15 -6t6 -14.5t-6 -14.5t-15 -6h-72q-8 0 -14 6t-6 15v613q0 9 6 15t14 6h593q9 0 15 -6t6 -15v-122h223q11 0 17 -10l145 -233q3 -5 3 -11zM818 311h-90l-1 108h91v-108z" />
    <glyph glyph-name="uniE636" unicode="&#xe636;" 
d="M999 307q-54 63 -142 126q-76 55 -153 87q-98 40 -191.5 40t-190.5 -40q-77 -32 -154 -87q-87 -63 -141 -126q-12 -13 0 -26q54 -63 141 -126q77 -55 154 -87q97 -40 190.5 -40t191.5 40q77 32 153 87q88 63 142 126q11 13 0 26zM359 491q79 28 154 28t153 -28
q51 -58 51 -136q0 -84 -59.5 -144t-144.5 -60t-145 60t-60 144q0 78 51 136zM833 188q-72 -52 -145 -82q-90 -37 -175 -37t-175 37q-73 29 -145 81q-68 49 -123 107q55 58 123 107q49 35 98 60q-24 -50 -24 -106q0 -101 72 -173t174 -72t173.5 72t71.5 173q0 56 -24 106
q50 -25 99 -60q67 -49 122 -107q-54 -58 -122 -106zM615 355.5q0 -42.5 -30 -72.5t-72.5 -30t-72 30t-29.5 72.5t29.5 72.5t72 30t72.5 -30t30 -72.5z" />
    <glyph glyph-name="uniE637" unicode="&#xe637;" 
d="M1023 289q0 -75 -53.5 -128t-128.5 -53h-185q-9 0 -15 6t-6 14.5t6 14.5t15 6h185q58 0 99.5 41t41.5 99t-41 99.5t-99 41.5h-1q-10 0 -16 7t-5 16q2 16 2 28q0 95 -67 161.5t-161 66.5q-72 0 -131 -42q-57 -41 -82 -107q-4 -10 -15 -12.5t-19 5.5q-29 30 -71.5 30
t-72.5 -30t-30 -72v-2v-3q1 -16 -15 -20q-50 -14 -82 -56t-32 -95q0 -65 45.5 -110.5t110.5 -45.5h170q8 0 14 -6t6 -14.5t-6 -14.5t-14 -6h-170q-82 0 -139.5 57.5t-57.5 139.5q0 67 41 121q35 45 88 64q4 56 45.5 95t97.5 39q43 0 79 -24q30 61 85 100q70 50 155 50
q111 0 190 -79t79 -190q0 -5 -1 -11q68 -8 114.5 -59.5t46.5 -121.5zM629 -9l-102 -102q-6 -6 -14.5 -6t-14.5 6l-102 102q-6 6 -6 14.5t6 14.5t14.5 6t14.5 -6l67 -67v359q0 8 6 14t14.5 6t14.5 -6t6 -14v-359l67 67q6 6 14.5 6t14.5 -6t6 -14.5t-6 -14.5z" />
    <glyph glyph-name="uniE638" unicode="&#xe638;" 
d="M16 -19h-1h1zM961 551v61q0 26 -18 44t-43 18h-530q-3 1 -8 8q-5 6 -16 22q-10 17 -16.5 25.5t-18 17t-23.5 8.5h-225q-25 0 -43 -18t-18 -43v-694v-1v-1v-1v-1v-1q1 -1 1 -2t1 -1v0v-2h1v-1q1 -2 3 -3v-1q1 0 2 -1l1 -1l1 -1h1h1v0q0 -1 1 -1t1.5 -0.5t1.5 -0.5h2h2h2h1
h1h1q1 1 2 1h1q1 0 1 1h1l1 1q1 0 2 1l1 1v1h2v1.5t1 0.5q0 1 1 2l1 1v1v1h1v1v2l103 492v2q0 8 6 14t14 6h796q8 0 14 -5.5t6 -13.5l-101 -548l-1 -1v-1v-1v-1q0 -8 -6 -14t-14 -6h-596q-9 0 -15 -6t-6 -14.5t6 -14.5t15 -6h596q25 0 42.5 17t18.5 42l102 549v2v2
q0 25 -18 43t-43 18zM920 551h-755q-25 0 -42.5 -17t-18.5 -42l-61 -293v495q0 8 6 14t14 6h224q3 -1 9 -8q5 -6 16 -23q10 -17 16 -25t17.5 -16.5t23.5 -8.5h531q8 0 14 -6t6 -15v-61zM698 208.5q0 -8.5 -6 -14.5t-14 -6h-146v-145q0 -9 -6 -15t-14 -6t-14 6t-6 15v145
h-146q-8 0 -14 6t-6 14.5t6 14.5t14 6h146v145q0 9 6 15t14 6t14 -6t6 -15v-145h146q8 0 14 -6t6 -14.5z" />
    <glyph glyph-name="uniE639" unicode="&#xe639;" 
d="M1015 269q-6 -6 -15 -6q-8 0 -14 6l-65 68v-524q0 -8 -6 -14t-14 -6h-266q-8 0 -14 6t-6 14.5t6 14.5t14 6h245v545l-367 383l-367 -383v-545h224v306q0 8 6 14t15 6h244q9 0 15 -6t6 -14.5t-6 -14.5t-15 -6h-224v-306q0 -8 -6 -14t-14 -6h-266q-8 0 -14 6t-6 14v524
l-65 -68q-6 -6 -14.5 -6t-14.5 6t-6 14.5t6 14.5l487 508q6 6 15 6t15 -6l487 -508q6 -6 6 -14.5t-6 -14.5z" />
    <glyph glyph-name="uniE63A" unicode="&#xe63a;" 
d="M962 492v151h-898v-653h898v343q0 8 6 14t14.5 6t14.5 -6t6 -14v-363q0 -9 -6 -15t-15 -6h-938q-9 0 -15 6t-6 15v693q0 9 6 15t15 6h938q9 0 15 -6t6 -15v-182q0 -11 -9 -17l-429 -287q-11 -8 -22 -1l-384 244q-7 5 -8.5 13t3 15t12.5 9t15 -2l373 -237z" />
    <glyph glyph-name="uniE63B" unicode="&#xe63b;" 
d="M916 521h-778q-8 0 -14 6t-6 14.5t6 14.5t14 6h778q9 0 15 -6t6 -14.5t-6 -14.5t-15 -6zM937 316.5q0 -8.5 -6 -14.5t-15 -6h-778q-8 0 -14 6t-6 14.5t6 14.5t14 6h778q9 0 15 -6t6 -14.5zM916 71h-778q-8 0 -14 6t-6 14.5t6 14.5t14 6h778q9 0 15 -6t6 -14.5t-6 -14.5
t-15 -6z" />
    <glyph glyph-name="uniE63C" unicode="&#xe63c;" 
d="M997 357.5q0 -83.5 -38 -160.5q-36 -73 -101 -129t-149 -87q-87 -32 -182 -32q-8 0 -14 6t-6 14.5t6 14.5t14 6q88 0 168 29q77 28 136 80q60 52 92.5 118.5t32.5 139.5t-32.5 140t-92.5 119q-59 51 -136 79q-80 30 -168 30t-168 -30q-77 -28 -136 -79q-60 -52 -92 -119
t-32 -140q0 -89 47 -167q46 -77 127 -128q9 -6 9 -17q0 -58 -42 -133q51 8 98 40q32 22 51 45q5 7 13.5 7.5t15 -4.5t7.5 -13.5t-4 -15.5q-21 -26 -59 -52q-75 -52 -160 -52h-1q-13 1 -18.5 12t1.5 21q35 50 50 102q5 17 6 32q-82 55 -129 135q-53 88 -53 188q0 84 37 160
q36 74 101 130t149 87q87 31 182 31t182 -31q84 -31 149 -87t101 -130q38 -76 38 -159.5z" />
    <glyph glyph-name="uniE63D" unicode="&#xe63d;" 
d="M278 324zM191.5 199q-48.5 0 -83 34.5t-34.5 83t34.5 83t83 34.5t83 -34.5t34.5 -83t-34.5 -83t-83 -34.5zM191.5 393q-31.5 0 -54 -22.5t-22.5 -54t22.5 -54t54 -22.5t54 22.5t22.5 54t-22.5 54t-54 22.5zM527.5 199q-48.5 0 -83 34.5t-34.5 83t34.5 83t83 34.5
t82.5 -34.5t34 -83t-34 -83t-82.5 -34.5zM527.5 393q-31.5 0 -54 -22.5t-22.5 -54t22.5 -54t54 -22.5t53.5 22.5t22 54t-22 54t-53.5 22.5zM863 199q-49 0 -83 34.5t-34 83t34 83t82.5 34.5t83 -34.5t34.5 -83.5q0 -16 -5 -33q-2 -8 -9.5 -12t-15.5 -1.5t-12 10t-2 15.5
q3 10 3 21q0 32 -22.5 54.5t-54 22.5t-53.5 -22.5t-22 -54t22 -54t54 -22.5q18 0 33 8q8 4 16 1t11.5 -10.5t1 -15.5t-10.5 -12q-24 -12 -51 -12z" />
    <glyph glyph-name="uniE63E" unicode="&#xe63e;" 
d="M961 228q6 -6 6 -14t-6 -14t-14.5 -6t-14.5 6l-88 87l-88 -87q-6 -6 -14.5 -6t-14.5 6t-6 14t6 14l88 88l-88 88q-6 6 -6 14.5t6 14.5t14.5 6t14.5 -6l88 -88l88 88q6 6 14.5 6t14.5 -6t6 -14.5t-6 -14.5l-88 -88zM627 779q-12 5 -21 -3l-317 -281h-181q-9 0 -14.5 -5.5
t-5.5 -14.5v-327q0 -8 5.5 -14t14.5 -6h176q8 0 14 6t6 14v308l6 4l289 256v-800l-197 169q-6 5 -14.5 4.5t-14 -7t-5 -14.5t7.5 -14l230 -197q6 -5 13 -5q5 0 9 2q11 6 11 18v888q0 14 -12 19zM263 168h-135v287h135v-287z" />
    <glyph glyph-name="uniE63F" unicode="&#xe63f;" horiz-adv-x="1025" 
d="M540 779.5q-12 5.5 -22 -3.5l-316 -280h-182q-8 0 -14 -6t-6 -15v-327q0 -8 6 -14t14 -6h176q9 0 15 6t6 14v308l6 4l288 255v-798l-196 168q-6 6 -14.5 5t-14 -7.5t-5 -14.5t6.5 -14l230 -197q6 -5 14 -5q4 0 8 2q12 5 12 18v888q0 14 -12 19.5zM176 168h-135v287h135
v-287zM736 316.5q0 -47.5 -28.5 -85t-74.5 -49.5h-5q-16 0 -20 15q-2 8 2 15.5t12 9.5q33 8 53 34.5t20 60t-20 59.5t-53 35q-8 2 -12 9.5t-2 15.5t9.5 12.5t15.5 1.5q46 -11 74.5 -48.5t28.5 -85zM879 316q0 -81 -41.5 -151t-112.5 -109q-5 -2 -10 -2q-12 0 -18 10
q-4 8 -1.5 16t9.5 12q62 34 98 94t36 130q0 71 -36.5 131t-98.5 94q-7 4 -9.5 12t1.5 15.5t12 10t16 -1.5q72 -39 113.5 -109t41.5 -152zM1024 316.5q0 -119.5 -63 -219.5q-61 -98 -164 -150q-5 -2 -10 -2q-12 0 -18 11q-4 7 -1 15.5t10 11.5q93 47 148 135q57 91 57 198.5
t-57 198.5q-55 88 -148 135q-7 3 -10 11t1 16t12 10.5t16 -1.5q103 -52 164 -150q63 -100 63 -219.5z" />
    <glyph glyph-name="uniE640" unicode="&#xe640;" 
d="M766 318l-369 218q-10 6 -20.5 0t-10.5 -18v-450q0 -12 11 -18q4 -3 10 -3q5 0 10 4l369 232q10 6 10 17.5t-10 17.5zM407 105v378l309 -184zM1024 300q0 -139 -70 -259q-5 -7 -13 -9.5t-15.5 2t-9.5 12.5t2 16q65 110 65 238q0 96 -37 183q-36 85 -101 150t-150 101
q-87 37 -183 37t-183 -37q-85 -36 -150 -101t-101 -150q-37 -87 -37 -183t37 -183q36 -85 101 -150t150 -101q87 -37 183 -37q88 0 170.5 32t147.5 91q6 6 14.5 5.5t14 -6.5t5.5 -14.5t-7 -14.5q-71 -65 -160 -99.5t-185 -34.5q-104 0 -199 40q-92 39 -163 110t-110 163
q-40 95 -40 199t40 199q39 92 110 163t163 110q95 40 199 40t199 -40q92 -39 163 -110t110 -163q40 -95 40 -199z" />
    <glyph glyph-name="uniE641" unicode="&#xe641;" 
d="M549 119v-63q0 -8 -8 -8h-55q-8 0 -8 8v63q0 7 8 7h55q8 0 8 -7zM651 431q0 -44 -38 -96l-49 -67q-11 -15 -15 -26t-4 -29v-24q0 -7 -7 -7h-49q-7 0 -7 7v30q0 36 22 66l49 68q20 27 27.5 43t7.5 34q0 31 -20 49.5t-52 18.5q-62 0 -76 -69q-1 -7 -8 -6l-46 8q-7 1 -6 8
q8 54 44.5 85.5t93.5 31.5q59 0 96 -35t37 -90zM1024 300q0 -139 -70 -259q-5 -7 -13 -9.5t-15.5 2t-9.5 12.5t2 16q65 110 65 238q0 96 -37 183q-36 85 -101 150t-150 101q-87 37 -183 37t-183 -37q-85 -36 -150 -101t-101 -150q-37 -87 -37 -183t37 -183q36 -85 101 -150
t150 -101q87 -37 183 -37q88 0 170.5 32t147.5 91q6 6 14.5 5.5t14 -6.5t5.5 -14.5t-7 -14.5q-71 -65 -160 -99.5t-185 -34.5q-104 0 -199 40q-92 39 -163 110t-110 163q-40 95 -40 199t40 199q39 92 110 163t163 110q95 40 199 40t199 -40q92 -39 163 -110t110 -163
q40 -95 40 -199z" />
    <glyph glyph-name="uniE642" unicode="&#xe642;" 
d="M686 748q-66 64 -159 64t-158 -64q-66 -64 -66 -155v-256q0 -91 66 -155q65 -64 158 -64t159 64t66 155v256q0 91 -66 155zM711 337q0 -73 -54 -125.5t-130 -52.5t-129.5 52.5t-53.5 125.5v256q0 74 53.5 126t129.5 52t130 -52t54 -126v-256zM854 445v-102
q0 -130 -89 -224t-217 -102v-144q0 -8 -6 -14t-14.5 -6t-14.5 6t-6 14v144q-129 8 -217.5 102t-88.5 224v102q0 8 6 14t14.5 6t14.5 -6t6 -14v-102q0 -118 83.5 -202t201.5 -84t202 84t84 202v102q0 8 6 14t14.5 6t14.5 -6t6 -14zM791 -187.5q0 -8.5 -6 -14.5t-14 -6h-488
q-8 0 -14 6t-6 14.5t6 14.5t14 6h488q8 0 14 -6t6 -14.5z" />
    <glyph glyph-name="uniE643" unicode="&#xe643;" 
d="M788 496l-307 -399q-5 -7 -14 -8h-2q-8 0 -14 6l-162 154l-23 -30q-5 -6 -13.5 -7t-15 4t-8 13.5t4.5 14.5l36 48q6 7 15 8t15 -6l163 -154l293 381q5 7 13.5 8t15 -4t7.5 -13.5t-4 -15.5zM1024 300q0 -139 -70 -259q-5 -7 -13 -9.5t-15.5 2t-9.5 12.5t2 16
q65 110 65 238q0 96 -37 183q-36 85 -101 150t-150 101q-87 37 -183 37t-183 -37q-85 -36 -150 -101t-101 -150q-37 -87 -37 -183t37 -183q36 -85 101 -150t150 -101q87 -37 183 -37q88 0 170.5 32t147.5 91q6 6 14.5 5.5t14 -6.5t5.5 -14.5t-7 -14.5q-71 -65 -160 -99.5
t-185 -34.5q-104 0 -199 40q-92 39 -163 110t-110 163q-40 95 -40 199t40 199q39 92 110 163t163 110q95 40 199 40t199 -40q92 -39 163 -110t110 -163q40 -95 40 -199z" />
    <glyph glyph-name="uniE644" unicode="&#xe644;" 
d="M726 115q6 -6 6 -14.5t-6 -14.5t-14.5 -6t-14.5 6l-185 185l-185 -185q-6 -6 -14.5 -6t-14.5 6t-6 14.5t6 14.5l185 185l-185 185q-6 6 -6 14.5t6 14.5t14.5 6t14.5 -6l185 -185l185 185q6 6 14.5 6t14.5 -6t6 -14.5t-6 -14.5l-185 -185zM1024 300q0 -139 -70 -259
q-5 -7 -13 -9.5t-15.5 2t-9.5 12.5t2 16q65 110 65 238q0 96 -37 183q-36 85 -101 150t-150 101q-87 37 -183 37t-183 -37q-85 -36 -150 -101t-101 -150q-37 -87 -37 -183t37 -183q36 -85 101 -150t150 -101q87 -37 183 -37q88 0 170.5 32t147.5 91q6 6 14.5 5.5t14 -6.5
t5.5 -14.5t-7 -14.5q-71 -65 -160 -99.5t-185 -34.5q-104 0 -199 40q-92 39 -163 110t-110 163q-40 95 -40 199t40 199q39 92 110 163t163 110q95 40 199 40t199 -40q92 -39 163 -110t110 -163q40 -95 40 -199z" />
    <glyph glyph-name="uniE645" unicode="&#xe645;" 
d="M760 548q-26 63 -74 111t-111 74q-64 27 -134.5 27t-135.5 -27q-62 -26 -110 -74t-74 -111q-28 -64 -28 -134.5t28 -135.5q26 -62 74 -110t110 -74q65 -28 135.5 -28t134.5 28q63 26 111 74t74 110q27 65 27 135.5t-27 134.5zM656.5 197q-89.5 -90 -216 -90t-216.5 90
t-90 216.5t90 216t216.5 89.5t216 -89.5t89.5 -216t-89.5 -216.5zM955 -121q-6 -6 -14.5 -6t-14.5 6l-194 193q-6 6 -6 14.5t6 14.5t14.5 6t14.5 -6l194 -193q6 -6 6 -14.5t-6 -14.5z" />
    <glyph glyph-name="uniE646" unicode="&#xe646;" 
d="M986 366q-29 43 -71 52q-10 30 -40 39q-14 138 -116 232q-105 98 -249 98t-250 -98q-101 -94 -115 -232q-30 -9 -40 -39q-42 -9 -72 -52q-33 -50 -33 -119.5t33 -119.5q30 -44 72 -53q6 -18 22 -30t36 -12q26 0 43.5 18t17.5 43v306q0 19 -10.5 34.5t-27.5 22.5
q13 120 102 203q94 87 222 87t222 -87q89 -83 102 -203q-17 -7 -28 -22.5t-11 -34.5v-306q0 -19 11.5 -35t28.5 -22q-4 -61 -41 -93.5t-101 -32.5h-64q-7 18 -22.5 29.5t-35.5 11.5h-102q-25 0 -43 -18t-18 -43.5t18 -43.5t43 -18h102q20 0 35.5 11.5t22.5 29.5h64
q81 0 129.5 44.5t53.5 121.5q29 10 39 39q42 9 71 53q34 50 34 119.5t-34 119.5zM184 93q0 -8 -6 -14t-14.5 -6t-14.5 6t-6 14.5t-6 14.5t-15 6q-33 0 -57 39t-24 93t24 93.5t57 39.5q9 0 15 6t6 14t6 14t14.5 6t14.5 -6t6 -14v-306zM571 -131h-102q-8 0 -14 6t-6 14.5
t6 14.5t14 6h102q8 0 14 -6t6 -14.5t-6 -14.5t-14 -6zM897 114q-8 0 -14 -6t-6 -14.5t-6 -14.5t-14.5 -6t-14.5 6t-6 14v306q0 8 6 14t14.5 6t14.5 -6t6 -14t6 -14t14 -6q33 0 57.5 -39.5t24.5 -93.5t-24.5 -93t-57.5 -39z" />
    <glyph glyph-name="uniE647" unicode="&#xe647;" 
d="M963 -191.5q-6 -6.5 -16 -6.5h-857q-9 0 -15 6.5t-5 16.5l82 714q1 8 6.5 13t13.5 5h71q8 0 14 -6t6 -14.5t-6 -14.5t-14 -6h-53l-77 -673h812l-77 673h-65q-8 0 -14 6t-6 14.5t6 14.5t14 6h83q8 0 13.5 -5t6.5 -13l82 -714q1 -10 -5 -16.5zM641 536.5q0 -8.5 -6 -14.5
t-15 -6h-199q-8 0 -14 6t-6 14.5t6 14.5t14 6h199q9 0 15 -6t6 -14.5zM743 434q0 -16 -12 -28t-28.5 -12t-28.5 12t-12 28q0 24 20 36v128q0 67 -48 115t-115.5 48t-115 -48t-47.5 -115v-128q20 -12 20 -36q0 -16 -12 -28t-29 -12t-29 12t-12 28q0 24 21 36v128q0 84 60 144
t144 60t144 -60t60 -144v-128q20 -12 20 -36z" />
    <glyph glyph-name="uniE648" unicode="&#xe648;" 
d="M979 396v304q0 30 -21 51t-50 21q-2 0 -78 -0.5t-151 -0.5h-75h-6q-5 1 -7 1q-50 0 -70 -20l-463 -464q-18 -17 -18 -41.5t18 -41.5l354 -355q17 -17 41.5 -17t42.5 17l463 464q10 9 14.5 23t5 24t0.5 29v6zM938 390q0 -39 -7 -47l-464 -464q-6 -5 -13.5 -5t-12.5 5
l-354 355q-6 5 -6 12.5t6 12.5l463 464q8 8 41 8h7h6h304q12 0 21 -9t9 -22v-18v-44v-58v-65v-59v-42v-18v-6zM860 592q-8 -3 -16 0t-11 11t-9 14q-12 12 -28.5 12t-28.5 -12t-12 -29t12 -29t28.5 -12t28.5 12q6 6 14.5 6t14.5 -6t6 -14.5t-6 -14.5q-24 -24 -57.5 -24
t-57.5 24t-24 58t24 57.5t57.5 23.5t57.5 -23q12 -12 18 -27q3 -8 0 -16t-11 -11z" />
    <glyph glyph-name="uniE649" unicode="&#xe649;" 
d="M765 198l-223 -223q-6 -6 -14.5 -6t-14.5 6l-223 223q-6 6 -6 14.5t6 14.5t14.5 6t14.5 -6l188 -188v605q0 8 6 14t14.5 6t14.5 -6t6 -14v-605l188 188q6 6 14.5 6t14.5 -6t6 -14.5t-6 -14.5z" />
    <glyph glyph-name="uniE64A" unicode="&#xe64a;" 
d="M875 316.5q0 -8.5 -6 -14.5t-15 -6h-605l189 -188q6 -6 6 -14.5t-6 -14.5t-14.5 -6t-14.5 6l-223 223q-6 6 -6 14.5t6 14.5l223 223q6 6 14.5 6t14.5 -6t6 -14.5t-6 -14.5l-189 -188h605q9 0 15 -6t6 -14.5z" />
    <glyph glyph-name="uniE64B" unicode="&#xe64b;" 
d="M875 316.5q0 -8.5 -6 -14.5l-223 -223q-6 -6 -14.5 -6t-14.5 6t-6 14.5t6 14.5l188 188h-605q-8 0 -14 6t-6 14.5t6 14.5t14 6h605l-188 188q-6 6 -6 14.5t6 14.5t14.5 6t14.5 -6l223 -223q6 -6 6 -14.5z" />
    <glyph glyph-name="uniE64C" unicode="&#xe64c;" 
d="M765 396q-6 -6 -14.5 -6t-14.5 6l-188 188v-605q0 -8 -6 -14t-14.5 -6t-14.5 6t-6 14v605l-188 -188q-6 -6 -14.5 -6t-14.5 6t-6 14.5t6 14.5l223 223q6 6 14.5 6t14.5 -6l223 -223q6 -6 6 -14.5t-6 -14.5z" />
    <glyph glyph-name="uniE64D" unicode="&#xe64d;" 
d="M764 353q-6 -6 -14.5 -6t-14.5 6l-187 187v-603q0 -9 -6 -15t-14.5 -6t-14.5 6t-6 15v603l-188 -187q-6 -6 -14.5 -6t-14.5 6t-6 14.5t6 14.5l223 222q6 6 14.5 6t14.5 -6l222 -222q6 -6 6 -14.5t-6 -14.5zM843 661.5q0 -8.5 -6 -14.5t-15 -6h-590q-9 0 -15 6t-6 14.5
t6 14.5t15 6h590q9 0 15 -6t6 -14.5z" />
    <glyph glyph-name="uniE64E" unicode="&#xe64e;" 
d="M527.5 146q-8.5 0 -14.5 6l-293 288q-6 6 -6 14t6 14.5t14 6.5t15 -6l278 -274l279 274q6 6 14.5 6t14.5 -6.5t5.5 -14.5t-6.5 -14l-293 -288q-5 -6 -13.5 -6z" />
    <glyph glyph-name="uniE64F" unicode="&#xe64f;" 
d="M244 -121h-106q-7 0 -12 5l-35 35q-5 6 -5 13v105q0 7 5 12l332 333q6 5 13 5t12 -5t5 -12.5t-5 -12.5l-327 -327v-91l25 -25h90l43 43v45q0 7 5 12t12 5h46l42 43v28q0 7 5 12t13 5h27l25 25v28q0 7 5 12t13 5h27l22 21q5 6 12 6t12.5 -5.5t5.5 -12.5t-6 -12l-26 -27
q-5 -5 -12 -5h-18v-17q0 -8 -5 -13l-35 -35q-5 -5 -12 -5h-18v-17q0 -8 -5 -13l-53 -52q-5 -6 -12 -6h-35v-35q0 -7 -5 -12l-53 -53q-5 -5 -12 -5zM682 195q-116 0 -198 82t-82 198.5t82 198.5t198 82t198.5 -82t82.5 -198.5t-82.5 -198.5t-198.5 -82zM682.5 721
q-101.5 0 -173.5 -72t-72 -173.5t72 -173.5t173.5 -72t173.5 72t72 173.5t-72 173.5t-173.5 72zM806 334q-7 0 -12 5l-248 248q-5 5 -5 12.5t5 12.5q56 56 136 56t136.5 -56.5t56.5 -136.5t-56 -136q-6 -5 -13 -5zM584 599l221 -222q38 46 34.5 106.5t-45.5 103.5
q-47 46 -112 46q-55 0 -98 -34zM114 -75q-7 0 -12 5t-5 12.5t5 12.5l292 292q5 5 12.5 5t12.5 -5t5 -12t-5 -13l-292 -292q-6 -5 -13 -5z" />
    <glyph glyph-name="uniE650" unicode="&#xe650;" 
d="M512 747q-91 0 -174 -35.5t-142.5 -95.5t-95 -142.5t-35.5 -173.5t35.5 -173.5t95 -142.5t142.5 -95.5t174 -35.5t174 35.5t142.5 95.5t95 142.5t35.5 173.5t-35.5 173.5t-95 142.5t-142.5 95.5t-174 35.5zM810 250h-348v249h50v-199h298v-50z" />
    <glyph glyph-name="uniE651" unicode="&#xe651;" 
d="M935 265q0 26 -28.5 51t-72.5 39q-3 1 -5.5 4t-5.5 12t3 24h-1q21 21 34.5 52.5t13.5 63.5q0 48 -28 75t-69 27t-69 -27t-28 -75q0 -32 13.5 -63.5t34.5 -52.5q6 -13 2 -22t-7.5 -12.5t-7.5 -5.5q-20 -7 -38 -17v25q0 26 -30 51t-75 40q-3 1 -6 3.5t-6 12t3 23.5
q21 22 34 53t13 63q0 48 -28 75t-69 27t-69 -27t-28 -75q0 -32 13.5 -63t34.5 -53q6 -13 2 -22t-7.5 -12.5t-7.5 -4.5q-42 -16 -71 -40.5t-29 -50.5v-26q-19 11 -40 18q-4 2 -7.5 5.5t-7.5 12.5t2 22q21 21 34.5 52.5t13.5 63.5q0 48 -28 75t-69 27t-69 -27t-28 -75
q0 -32 13.5 -63.5t34.5 -52.5h-1q6 -15 3 -24t-5.5 -12t-5.5 -4q-44 -14 -72.5 -39t-28.5 -51v-169h1v-1v-1l-1 -1q0 -67 69.5 -122.5t183.5 -81.5v51q0 29 31 55.5t75 42.5q5 2 8 8q3 8 0 19q-23 23 -36 56t-13 64q0 54 31 82.5t74 28.5t74 -28.5t31 -82.5q0 -31 -13 -63.5
t-35 -55.5q-7 -24 4 -28q45 -14 78 -40.5t33 -57.5v-51q112 26 181.5 81.5t69.5 122.5l-1 1v1v1h1v169z" />
    <glyph glyph-name="uniE652" unicode="&#xe652;" 
d="M512 754q-120 0 -204.5 -86.5t-84.5 -209.5q0 -77 29.5 -168t72 -167t85 -139.5t72.5 -101t30 -36.5q12 14 31.5 38.5t69 98.5t88 144.5t69.5 163t31 167.5q0 123 -84.5 209.5t-204.5 86.5zM512 320q-48 0 -82 34.5t-34 83.5t34 84t82 35t82 -35t34 -84t-34 -83.5
t-82 -34.5z" />
    <glyph glyph-name="uniE653" unicode="&#xe653;" 
d="M949 664q-10 10 -24 10t-24.5 -10t-10.5 -24v-27l-756 -223v12q0 14 -10.5 24t-24.5 10t-24 -10t-10 -24v-170q0 -14 10 -24t24 -10t24.5 10t10.5 24v8l756 -252v-28q0 -14 10.5 -24t24.5 -10t24 10t10 24v680q0 14 -10 24zM856 436l-688 -102v17l688 187v-102zM529 68
l-8 -22q-12 -35 -46 -52q-19 -9 -40 -9q-15 0 -30 4l-85 29q-36 12 -53 45.5t-5 69.5l8 22q3 8 10.5 11.5t15.5 0.5t12 -10.5t1 -15.5l-8 -22q-7 -19 2.5 -37.5t29.5 -25.5l85 -28q20 -6 39 3t25 29l8 22q3 8 11 11.5t16 0.5t11.5 -10.5t0.5 -15.5z" />
    <glyph glyph-name="uniE654" unicode="&#xe654;" 
d="M942 616l-430 -632l-430 632h860z" />
    <glyph glyph-name="uniE655" unicode="&#xe655;" 
d="M936 338.5q0 -99.5 -56.5 -184t-154.5 -133.5t-213 -49q-59 0 -116 14q-2 -4 -8 -10t-25 -22t-40 -28t-53.5 -21.5t-66.5 -9.5q26 37 40.5 75.5t16 52t1.5 20.5q-80 51 -126.5 128.5t-46.5 167.5q0 99 56.5 183.5t154.5 133.5t213 49t213 -49t154.5 -133.5t56.5 -184z
" />
    <glyph glyph-name="uniE656" unicode="&#xe656;" 
d="M715 682q-63 0 -116.5 -29t-86.5 -79q-33 50 -86.5 79t-116.5 29q-101 0 -172 -70.5t-71 -170.5q0 -67 25 -130t62.5 -108.5t90.5 -91.5t98 -75.5t95.5 -64t74.5 -53.5q24 19 74.5 53.5t95.5 64t98 75.5t90.5 91.5t62.5 108.5t25 130q0 100 -71 170.5t-172 70.5z" />
    <glyph glyph-name="uniE657" unicode="&#xe657;" 
d="M96 -84q-13 0 -22.5 9.5t-9.5 22.5v448q0 13 9.5 22.5t22.5 9.5t22.5 -9.5t9.5 -22.5v-448q0 -13 -9.5 -22.5t-22.5 -9.5zM864 428h-189q12 28 19.5 83t0.5 107q-5 45 -30 77.5t-63 45.5q-29 10 -56.5 6t-43.5 -21q-12 -12 -22 -35t-15 -41t-14 -52q-17 -70 -28 -89
q-14 -23 -40 -43t-41 -27t-28 -11h-90q-13 0 -22.5 -9.5t-9.5 -22.5v-448q0 -13 9.5 -22.5t22.5 -9.5h87q22 -12 49 -24t83.5 -26t108.5 -14h216q33 0 68.5 13t51 38.5t44 207.5t28.5 220q0 39 -31 68t-65 29zM833 -63q-4 -7 -24.5 -14t-40.5 -7h-216q-23 0 -47.5 3.5t-45 9
t-40 12.5t-34 14t-25.5 12.5t-18 8.5l-6 4h-16h-64v384h64q1 0 7 2h1h1h2h1l1 1q12 4 26 10.5t37 19.5t45.5 34t36.5 46q16 26 35 105q21 85 34 99q3 3 12.5 3t24.5 -4q41 -17 48 -70q5 -46 -4 -98.5t-16 -72t-12 -30.5q-7 -16 2 -31q9 -14 27 -14h235q8 0 20 -10.5
t12 -22.5q0 -33 -26.5 -202.5t-36.5 -191.5z" />
    <glyph glyph-name="uniE658" unicode="&#xe658;" 
d="M888 514q-10 9 -23 8.5t-22 -10.5l-427 -454l-233 230q-10 9 -23 9t-22.5 -9.5t-9.5 -23t10 -22.5l256 -253h1q1 -1 7 -4q0 -1 1 -1.5t2 -1.5q6 -2 12 -2t12 3q1 0 2 1t2 1q5 3 7 5v0l449 479q9 9 9 22.5t-10 22.5z" />
    <glyph glyph-name="uniE659" unicode="&#xe659;" 
d="M557 299l266 264q9 9 9 22t-9.5 22.5t-22.5 9.5t-23 -9l-265 -264l-263 264q-9 9 -22.5 9t-23 -9t-9.5 -22.5t10 -22.5l263 -264l-265 -264q-10 -9 -10 -22.5t9.5 -22.5t22.5 -9t23 9l265 264l265 -267q10 -9 23 -9t22.5 9.5t9.5 22.5t-9 23z" />
    <glyph glyph-name="uniE65A" unicode="&#xe65a;" 
d="M957 407.5q-6 18.5 -25 21.5l-271 42l-120 259q-9 18 -29 18q-21 0 -29 -18l-122 -258l-271 -41q-19 -3 -25.5 -21.5t7.5 -32.5l196 -202l-47 -285q-3 -20 13.5 -31.5t33.5 -1.5l242 133l242 -134q7 -4 15 -4h1q13 0 22.5 9.5t9.5 22.5q0 6 -2 11l-45 279l197 201
q13 14 7 32.5z" />
    <glyph glyph-name="uniE65B" unicode="&#xe65b;" 
d="M767 -148q-8 0 -15 4l-242 134l-242 -133q-17 -10 -33.5 1.5t-13.5 31.5l47 285l-196 202q-14 14 -8 32.5t25 21.5l156 26q13 3 23.5 -5t13 -21t-5.5 -23.5t-21 -13.5l-95 -16l166 -170q11 -12 8 -28l-39 -235l200 110q15 8 31 -1l199 -110l-38 236q-3 16 9 27l164 169
l-225 34q-17 3 -24 18l-100 213l-100 -212q-5 -12 -17.5 -16.5t-24.5 1t-16.5 18t0.5 24.5l130 274q8 18 29 18q20 0 29 -18l120 -259l271 -42q19 -3 25 -21.5t-7 -32.5l-197 -201l46 -285q3 -20 -14 -31q-8 -6 -18 -6z" />
    <glyph glyph-name="uniE65C" unicode="&#xe65c;" 
d="M512 748q-146 0 -249 -103t-103 -249q0 -53 34 -127.5t76.5 -136.5t98 -130.5t80 -95.5t40.5 -44q9 -10 23 -10h1q14 0 23 11l109 125q219 268 219 408q0 146 -103 249t-249 103zM512 236q-66 0 -113 47t-47 113t47 113t113 47t113 -47t47 -113t-47 -113t-113 -47z" />
    <glyph glyph-name="uniE65D" unicode="&#xe65d;" 
d="M512 204q-79 0 -135.5 56.5t-56.5 135.5t56.5 135.5t135.5 56.5t135.5 -56.5t56.5 -135.5t-56.5 -135.5t-135.5 -56.5zM512 524q-53 0 -90.5 -37.5t-37.5 -90.5t37.5 -90.5t90.5 -37.5t90.5 37.5t37.5 90.5t-37.5 90.5t-90.5 37.5zM512 -148q-13 0 -22 9q-10 9 -10 22.5
t9 22.5q39 41 86 97.5t100.5 129.5t89 144.5t35.5 118.5q0 119 -84.5 203.5t-203.5 84.5t-203.5 -84.5t-84.5 -203.5q0 -57 52.5 -151.5t151.5 -215.5q9 -11 7.5 -24t-12 -21.5t-23.5 -7t-21 11.5q-219 268 -219 408q0 146 103 249t249 103t249 -103t103 -249
q0 -53 -34 -127.5t-76.5 -136.5t-98 -130.5t-80 -95.5t-40.5 -44q-9 -10 -23 -10z" />
    <glyph glyph-name="uniE65E" unicode="&#xe65e;" 
d="M512 746q-91 0 -173.5 -35.5t-142 -95t-95 -142t-35.5 -173.5t35.5 -173.5t95 -142t142 -95t173.5 -35.5t173.5 35.5t142 95t95 142t35.5 173.5t-35.5 173.5t-95 142t-142 95t-173.5 35.5zM727 374l-256 -259v-1q-2 -1 -7 -4q-1 -1 -2 -1.5t-2 -1.5q-6 -2 -12 -2t-12 2
q-1 1 -2 1.5t-1 1.5q-6 3 -7 4v1h-1l-126 129q-9 10 -9 23t9.5 22.5t23 9t22.5 -9.5l103 -106l234 236q9 9 22.5 9t22.5 -9t9.5 -22.5t-9.5 -22.5z" />
    <glyph glyph-name="uniE65F" unicode="&#xe65f;" 
d="M512 -148q-185 0 -316.5 131.5t-131.5 316.5t131.5 316.5t316.5 131.5t316.5 -131.5t131.5 -316.5t-131.5 -316.5t-316.5 -131.5zM512 684q-104 0 -192.5 -51.5t-140 -140t-51.5 -192.5t51.5 -192.5t140 -140t192.5 -51.5t192.5 51.5t140 140t51.5 192.5t-51.5 192.5
t-140 140t-192.5 51.5zM727 418.5q-9 9.5 -22.5 9.5t-22.5 -9l-234 -236l-103 106q-9 9 -22.5 9.5t-23 -9t-9.5 -22.5t9 -23l126 -129h1v-1q1 -1 7 -4q0 -1 1 -1.5t2 -1.5q6 -2 12 -2t12 2q1 1 2 1.5t2 1.5q5 3 7 4v1l256 259q10 9 9.5 22t-9.5 22.5z" />
    <glyph glyph-name="uniE660" unicode="&#xe660;" 
d="M512 748q-185 0 -316.5 -131.5t-131.5 -316.5t131.5 -316.5t316.5 -131.5t316.5 131.5t131.5 316.5t-131.5 316.5t-316.5 131.5zM695 162q9 -9 9 -22.5t-9.5 -23t-22.5 -9.5t-23 10l-137 138l-138 -137q-10 -9 -23 -9t-22.5 9.5t-9.5 22.5t10 23l138 136l-138 138
q-9 9 -9 22.5t9.5 23t22.5 9.5t23 -10l137 -138l138 137q10 9 23 9t22.5 -9.5t9.5 -22.5t-10 -23l-138 -136z" />
    <glyph glyph-name="uniE661" unicode="&#xe661;" 
d="M512 -160q-185 0 -316.5 131.5t-131.5 316.5t131.5 316.5t316.5 131.5t316.5 -131.5t131.5 -316.5t-131.5 -316.5t-316.5 -131.5zM512 672q-104 0 -192.5 -51.5t-140 -140t-51.5 -192.5t51.5 -192.5t140 -140t192.5 -51.5t192.5 51.5t140 140t51.5 192.5t-51.5 192.5
t-140 140t-192.5 51.5zM557 287l138 136q10 10 10 23t-9.5 22.5t-22.5 9.5t-23 -9l-138 -137l-137 137q-9 9 -22 9t-22.5 -9t-9.5 -22.5t9 -22.5l136 -137l-137 -136q-9 -9 -9.5 -22.5t9 -23t22.5 -9.5q14 0 23 10l138 136l138 -140q10 -9 23 -9t22.5 9.5t9.5 22.5t-9 23z
" />
    <glyph glyph-name="uniE662" unicode="&#xe662;" 
d="M512 748q-185 0 -316.5 -131.5t-131.5 -316.5t131.5 -316.5t316.5 -131.5t316.5 131.5t131.5 316.5t-131.5 316.5t-316.5 131.5zM662 276l-160 -158q-10 -10 -23 -10t-22.5 9.5t-9.5 23t10 22.5l137 136l-136 137q-10 9 -10 22.5t9.5 22.5t23 9t22.5 -9l159 -160v0
q4 -4 7 -10q8 -20 -7 -35z" />
    <glyph glyph-name="uniE663" unicode="&#xe663;" 
d="M512 -148q-185 0 -316.5 131.5t-131.5 316.5t131.5 316.5t316.5 131.5t316.5 -131.5t131.5 -316.5t-131.5 -316.5t-316.5 -131.5zM512 684q-159 0 -271.5 -112.5t-112.5 -271.5t112.5 -271.5t271.5 -112.5t271.5 112.5t112.5 271.5t-112.5 271.5t-271.5 112.5zM669 311
q-3 6 -7 10v0l-159 160q-9 9 -22.5 9t-23 -9t-9.5 -22.5t10 -22.5l136 -137l-138 -136q-9 -9 -9 -22.5t9.5 -23t22.5 -9.5t22 10l161 158q15 15 7 35z" />
    <glyph glyph-name="uniE664" unicode="&#xe664;" 
d="M512 748q-185 0 -316.5 -131.5t-131.5 -316.5t131.5 -316.5t316.5 -131.5t316.5 131.5t131.5 316.5t-131.5 316.5t-316.5 131.5zM671 236h-191q-13 0 -22.5 9.5t-9.5 22.5v255q0 13 9.5 22.5t22.5 9.5t22.5 -9.5t9.5 -22.5v-223h159q14 0 23 -9.5t9 -22.5t-9 -22.5
t-23 -9.5z" />
    <glyph glyph-name="uniE665" unicode="&#xe665;" 
d="M512 748q-185 0 -316.5 -131.5t-131.5 -316.5t131.5 -316.5t316.5 -131.5t316.5 131.5t131.5 316.5t-131.5 316.5t-316.5 131.5zM512 -84q-104 0 -192.5 51.5t-140 140t-51.5 192.5t51.5 192.5t140 140t192.5 51.5t192.5 -51.5t140 -140t51.5 -192.5t-51.5 -192.5
t-140 -140t-192.5 -51.5zM672 300h-160v224q0 13 -9.5 22.5t-22.5 9.5t-22.5 -9.5t-9.5 -22.5v-256q0 -13 9.5 -22.5t22.5 -9.5h192q13 0 22.5 9.5t9.5 22.5t-9.5 22.5t-22.5 9.5z" />
    <glyph glyph-name="uniE666" unicode="&#xe666;" 
d="M943 43l-341 609q-35 63 -90.5 63t-90.5 -63l-340 -609q-34 -62 -6 -111q29 -48 100 -48h674q71 0 99.5 48.5t-5.5 110.5zM480 492q0 13 9.5 22.5t22.5 9.5t22.5 -9.5t9.5 -22.5v-288q0 -13 -9.5 -22.5t-22.5 -9.5t-22.5 9.5t-9.5 22.5v288zM512 -20q-20 0 -34 14t-14 34
t14 34t34 14t34 -14t14 -34t-14 -34t-34 -14z" />
    <glyph glyph-name="uniE667" unicode="&#xe667;" 
d="M849 -117h-674q-71 0 -99.5 49t5.5 111l340 609q35 63 90.5 63t90.5 -63l341 -609q34 -63 5.5 -111.5t-99.5 -48.5zM512 651q-18 0 -35 -30l-340 -610q-17 -30 -7 -47t45 -17h674q35 0 45 17t-7 47l-341 610q-16 30 -34 30zM512 172q-13 0 -22.5 9.5t-9.5 22.5v288
q0 13 9.5 22.5t22.5 9.5t22.5 -9.5t9.5 -22.5v-288q0 -13 -9.5 -22.5t-22.5 -9.5zM512 60zM464 60q0 20 14 34t34 14t34 -14t14 -34t-14 -34t-34 -14t-34 14t-14 34z" />
    <glyph glyph-name="uniE668" unicode="&#xe668;" 
d="M864 620h-352q0 40 -28 68t-68 28h-64q-40 0 -68 -28t-28 -68h-96q-40 0 -68 -28t-28 -68v-512q0 -40 28 -68t68 -28h704q40 0 68 28t28 68v512q0 40 -28 68t-68 28zM512 76q-79 0 -135.5 56.5t-56.5 135.5t56.5 135.5t135.5 56.5t135.5 -56.5t56.5 -135.5t-56.5 -135.5
t-135.5 -56.5zM816 396q-20 0 -34 14t-14 34t14 34t34 14t34 -14t14 -34t-14 -34t-34 -14z" />
    <glyph glyph-name="uniE669" unicode="&#xe669;" 
d="M512 76q-79 0 -135.5 56.5t-56.5 135.5t56.5 135.5t135.5 56.5t135.5 -56.5t56.5 -135.5t-56.5 -135.5t-135.5 -56.5zM512 396q-53 0 -90.5 -37.5t-37.5 -90.5t37.5 -90.5t90.5 -37.5t90.5 37.5t37.5 90.5t-37.5 90.5t-90.5 37.5zM864 -84h-704q-40 0 -68 28t-28 68v512
q0 40 28 68t68 28h96q13 0 22.5 -9.5t9.5 -22.5t-9.5 -22.5t-22.5 -9.5h-96q-13 0 -22.5 -9.5t-9.5 -22.5v-512q0 -13 9.5 -22.5t22.5 -9.5h704q13 0 22.5 9.5t9.5 22.5v512q0 13 -9.5 22.5t-22.5 9.5h-352q-13 0 -22.5 9.5t-9.5 22.5t9.5 22.5t22.5 9.5h352q40 0 68 -28
t28 -68v-512q0 -40 -28 -68t-68 -28zM816 476zM768 476q0 20 14 34t34 14t34 -14t14 -34t-14 -34t-34 -14t-34 14t-14 34zM480 684q0 -13 -9.5 -22.5t-22.5 -9.5h-128q-13 0 -22.5 9.5t-9.5 22.5t9.5 22.5t22.5 9.5h128q13 0 22.5 -9.5t9.5 -22.5z" />
    <glyph glyph-name="uniE66A" unicode="&#xe66a;" 
d="M832 684h-640q-40 0 -68 -28t-28 -68v-512q0 -40 28 -68t68 -28h211l86 -87q10 -9 23 -9t23 9l86 87h211q40 0 68 28t28 68v512q0 40 -28 68t-68 28zM336 300q-20 0 -34 14t-14 34t14 34t34 14t34 -14t14 -34t-14 -34t-34 -14zM528 300q-20 0 -34 14t-14 34t14 34t34 14
t34 -14t14 -34t-14 -34t-34 -14zM720 300q-20 0 -34 14t-14 34t14 34t34 14t34 -14t14 -34t-14 -34t-34 -14z" />
    <glyph glyph-name="uniE66B" unicode="&#xe66b;" 
d="M512 -116q-13 0 -23 9l-96 96q-9 10 -9 23t9.5 22.5t22.5 9.5t23 -9l73 -74l73 74q10 9 23 9h224q13 0 22.5 9.5t9.5 22.5v512q0 13 -9.5 22.5t-22.5 9.5h-640q-13 0 -22.5 -9.5t-9.5 -22.5v-512q0 -13 9.5 -22.5t22.5 -9.5h96q13 0 22.5 -9.5t9.5 -22.5t-9.5 -22.5
t-22.5 -9.5h-96q-40 0 -68 28t-28 68v512q0 40 28 68t68 28h640q40 0 68 -28t28 -68v-512q0 -40 -28 -68t-68 -28h-211l-86 -87q-10 -9 -23 -9zM336 300q-20 0 -34 14t-14 34t14 34t34 14t34 -14t14 -34t-14 -34t-34 -14zM528 300q-20 0 -34 14t-14 34t14 34t34 14t34 -14
t14 -34t-14 -34t-34 -14zM720 300q-20 0 -34 14t-14 34t14 34t34 14t34 -14t14 -34t-14 -34t-34 -14z" />
    <glyph glyph-name="uniE66C" unicode="&#xe66c;" 
d="M736 684q-102 0 -176 -70q-6 -5 -48 -48l-47 47q-74 71 -177 71q-106 0 -181 -75t-75 -181q0 -100 76 -182l317 -321q42 -41 87 -41t87 42l316 320l3 2q25 31 37.5 49.5t24.5 54t12 76.5q0 106 -75 181t-181 75z" />
    <glyph glyph-name="uniE66D" unicode="&#xe66d;" 
d="M512 -116q-45 0 -87 41l-319 323q-25 31 -37.5 49.5t-24.5 54t-12 76.5q0 106 75 181t181 75q81 0 147 -47q11 -7 13.5 -20t-5.5 -24t-21 -13.5t-24 5.5q-49 35 -110 35q-79 0 -135.5 -56.5t-56.5 -135.5q0 -43 13 -70t46 -69l316 -319q22 -22 41 -22q18 0 41 23l317 320
q58 62 58 137q0 79 -56.5 135.5t-135.5 56.5q-75 0 -130 -50l-134 -134q-9 -10 -22 -10t-22.5 9.5t-9.5 22.5t9 23l135 135q75 68 174 68q106 0 181 -75t75 -181q0 -100 -76 -182l-317 -320q-42 -42 -87 -42z" />
    <glyph glyph-name="uniE66E" unicode="&#xe66e;" 
d="M526 -112q-31 0 -69 37l-182 183h-83q-40 0 -68 28t-28 68v192q0 40 28 68t68 28h83l182 183q37 37 69 37q20 0 35 -15t15 -45v-704q0 -31 -15 -45.5t-35 -14.5zM688 82q-11 0 -19 6q-11 7 -13 20.5t6 23.5l12 18q22 29 32 45t20 45t10 60q0 33 -9 60.5t-18.5 42.5
t-29.5 42q-10 13 -17 23q-8 10 -6 23.5t13 21t24 5.5t21 -13q4 -7 16 -21q23 -31 34.5 -49.5t23.5 -55.5t12 -79q0 -41 -13 -79t-25 -57.5t-36 -51.5l-12 -17q-10 -13 -26 -13zM796 -27q-12 0 -21 8q-10 9 -10.5 22t7.5 23q58 66 91 130t33 144t-33 144t-91 130
q-8 10 -7.5 23t10.5 22t23.5 8t22.5 -11q63 -73 101 -147.5t38 -168.5t-38 -168.5t-101 -147.5q-10 -11 -25 -11z" />
    <glyph glyph-name="uniE66F" unicode="&#xe66f;" 
d="M526 -112q-31 0 -69 37l-182 183h-83q-40 0 -68 28t-28 68v192q0 40 28 68t68 28h83l182 183q37 37 69 37q20 0 35 -15t15 -45v-704q0 -31 -15 -45.5t-35 -14.5zM192 428q-13 0 -22.5 -9.5t-9.5 -22.5v-192q0 -13 9.5 -22.5t22.5 -9.5h96q13 0 23 -9l192 -192l9 -9v676
q-5 -4 -9 -9l-192 -192q-10 -9 -23 -9h-96zM688 82q-11 0 -19 6q-11 7 -13 20.5t6 23.5l12 18q22 29 32 45t20 45t10 60q0 33 -9 60.5t-18.5 42.5t-29.5 42q-10 13 -17 23q-8 10 -6 23.5t13 21t24 5.5t21 -13q4 -7 16 -21q23 -31 34.5 -49.5t23.5 -55.5t12 -79
q0 -41 -13 -79t-25 -57.5t-36 -51.5l-12 -17q-10 -13 -26 -13zM796 -27q-12 0 -21 8q-10 9 -10.5 22t7.5 23q58 66 91 130t33 144t-33 144t-91 130q-8 10 -7.5 23t10.5 22t23.5 8t22.5 -11q63 -73 101 -147.5t38 -168.5t-38 -168.5t-101 -147.5q-10 -11 -25 -11z" />
    <glyph glyph-name="uniE670" unicode="&#xe670;" 
d="M352 460h128v-128h-128v128zM919 -61l-146 145q91 108 91 248q0 159 -112.5 271.5t-271.5 112.5t-271.5 -112.5t-112.5 -271.5t112.5 -271.5t271.5 -112.5q140 0 248 91l145 -146q10 -9 23 -9t22.5 9.5t9.5 22.5t-9 23zM288 300v192q0 13 9.5 22.5t22.5 9.5h192
q13 0 22.5 -9.5t9.5 -22.5v-192q0 -13 -9.5 -22.5t-22.5 -9.5h-192q-13 0 -22.5 9.5t-9.5 22.5zM640 204q0 -13 -9.5 -22.5t-22.5 -9.5h-160q-13 0 -22.5 9.5t-9.5 22.5t9.5 22.5t22.5 9.5h128v128q0 13 9.5 22.5t22.5 9.5t22.5 -9.5t9.5 -22.5v-160z" />
    <glyph glyph-name="uniE671" unicode="&#xe671;" 
d="M512 268h-192q-13 0 -22.5 9.5t-9.5 22.5v192q0 13 9.5 22.5t22.5 9.5h192q13 0 22.5 -9.5t9.5 -22.5v-192q0 -13 -9.5 -22.5t-22.5 -9.5zM352 332h128v128h-128v-128zM608 172h-160q-13 0 -22.5 9.5t-9.5 22.5t9.5 22.5t22.5 9.5h128v128q0 13 9.5 22.5t22.5 9.5
t22.5 -9.5t9.5 -22.5v-160q0 -13 -9.5 -22.5t-22.5 -9.5zM896 -116q-13 0 -23 9l-167 167q-9 10 -9 23t9 23q94 93 94 226q0 132 -94 226t-226 94t-226 -94t-94 -226t94 -226t226 -94q59 0 114 21q13 5 25 -0.5t16.5 -18t-1 -24.5t-17.5 -17q-66 -25 -137 -25
q-159 0 -271.5 112.5t-112.5 271.5t112.5 271.5t271.5 112.5t271.5 -112.5t112.5 -271.5q0 -141 -91 -248l146 -145q9 -10 9 -23t-9.5 -22.5t-22.5 -9.5z" />
    <glyph glyph-name="uniE672" unicode="&#xe672;" 
d="M352 236h-128q-13 0 -22.5 9.5t-9.5 22.5t9.5 22.5t22.5 9.5h96v96q0 13 9.5 22.5t22.5 9.5t22.5 -9.5t9.5 -22.5v-128q0 -13 -9.5 -22.5t-22.5 -9.5zM702 145q-46 0 -81.5 -28.5t-45.5 -72.5h-124q-10 44 -45.5 72.5t-81.5 28.5q-55 0 -93 -38.5t-38 -92.5t38 -92.5
t93 -38.5q44 0 79 27.5t47 69.5h126q12 -42 46.5 -69.5t79.5 -27.5q54 0 92.5 38.5t38.5 92.5t-38.5 92.5t-92.5 38.5zM323.5 -53q-27.5 0 -47 19.5t-19.5 47.5t19.5 47.5t47 19.5t47.5 -19.5t20 -47.5t-20 -47.5t-47.5 -19.5zM702 -53q-28 0 -47.5 19.5t-19.5 47.5
t19.5 47.5t47.5 19.5t47.5 -19.5t19.5 -47.5t-19.5 -47.5t-47.5 -19.5zM864 716h-464q-33 0 -56.5 -23.5t-23.5 -56.5v-92l-195 -98l-4 -2q-56 -40 -56 -112v-322q0 -13 9.5 -22.5t23 -9.5t22.5 9.5t9 22.5v322q0 38 27 58l210 105l2 2l2 1q4 3 5 4t4 5l3 6q0 2 1 6
q0 1 0.5 2.5t0.5 2.5v112q0 7 4.5 11.5t11.5 4.5h464q13 0 22.5 -9.5t9.5 -23.5v-607q0 -13 9.5 -22.5t22.5 -9.5t22.5 9.5t9.5 22.5v607q0 40 -28 68.5t-68 28.5z" />
    <glyph glyph-name="uniE673" unicode="&#xe673;" 
d="M406 -120q-15 0 -24 11q-24 26 -55.5 45t-57.5 28t-53.5 14t-38 6t-16.5 1q-13 0 -22.5 9t-9.5 22.5t9 23t22 9.5q6 0 21 -1t47 -7t64 -17t70 -34.5t67 -56.5q9 -10 8.5 -23t-10.5 -22q-9 -8 -21 -8zM620 -120q-12 0 -22 8q-9 9 -9.5 22.5t8.5 23.5q30 32 68.5 56
t70 34.5t63.5 16.5t46 7t21 1q13 0 22 -9.5t9 -23t-9.5 -22.5t-22.5 -9v0q-6 0 -16 -0.5t-37.5 -6t-53.5 -14.5t-58 -28.5t-56 -45.5q-10 -10 -24 -10zM564 43h-102q-5 0 -9 1q-81 11 -148 56.5t-112 121.5q-51 87 -62 191t23 186q8 19 29 19h10q91 0 169 -34
q57 103 128 155q4 3 8 5q16 7 31 -2l4 -4q71 -51 127 -156q79 36 173 36h10q21 0 29 -19q34 -82 23 -186t-62 -192q-45 -75 -112 -121t-148 -56q-5 -1 -9 -1zM468 107h90h2q140 16 217 147q41 69 52.5 151.5t-9.5 148.5q-88 -3 -159 -42q-12 -7 -25 -3t-19 17
q-49 99 -106 148q-58 -50 -106 -146q-6 -13 -19 -17t-25 3q-70 38 -155 40q-21 -66 -9.5 -148.5t52.5 -151.5q77 -131 217 -147h2zM513 -148q-13 0 -22.5 9.5t-9.5 22.5v191q0 13 9.5 22.5t22.5 9.5t22.5 -9.5t9.5 -22.5v-191q0 -13 -9.5 -22.5t-22.5 -9.5z" />
    <glyph glyph-name="uniE674" unicode="&#xe674;" 
d="M672 -100q-20 0 -34 14l-352 352q-14 14 -14 34t14 34l352 352q14 14 34 14t34 -14t14 -34t-14 -34l-318 -318l318 -318q14 -14 14 -34t-14 -34t-34 -14z" />
    <glyph glyph-name="uniE675" unicode="&#xe675;" 
d="M512 748q-185 0 -316.5 -131.5t-131.5 -316.5t131.5 -316.5t316.5 -131.5t316.5 131.5t131.5 316.5t-131.5 316.5t-316.5 131.5zM765 12q0 22 -21 30q-2 1 -15 6.5t-24 9.5t-27 9.5t-34 10t-36 7.5v14q46 45 74 122.5t28 146.5q0 96 -47.5 148t-134.5 52
q-89 0 -140.5 -53t-51.5 -147q0 -50 19 -130t61 -131v-17q-92 -23 -142 -40q-11 -4 -16 -14.5t-2 -21.5q-61 53 -95 127.5t-34 158.5q0 104 51.5 192.5t140 140t193 51.5t193 -51.5t140 -140t51.5 -192.5q0 -85 -35 -160t-96 -128z" />
    <glyph glyph-name="uniE676" unicode="&#xe676;" 
d="M512 748q-185 0 -316.5 -131.5t-131.5 -316.5t131.5 -316.5t316.5 -131.5t316.5 131.5t131.5 316.5t-131.5 316.5t-316.5 131.5zM289 -12q7 0 10 1q103 37 158 41q12 1 20.5 10t8.5 22v59q0 15 -11 24q-37 32 -54.5 94.5t-17.5 128.5q0 136 125 136q118 0 118 -136
q0 -66 -26 -132.5t-64 -96.5q-12 -10 -12 -25v-55q0 -13 8.5 -22t20.5 -10q50 -6 148 -45h3l2 -1q-97 -65 -214 -65q-122 0 -223 72zM765 11q0 23 -20 31q-80 31 -137 43v14q48 45 75 121.5t27 147.5q0 96 -47.5 148t-134.5 52q-89 0 -139 -53t-50 -147q0 -23 2.5 -49.5
t10 -66.5t25.5 -79t45 -66v-17q-61 -11 -145 -41q-11 -3 -16.5 -13.5t-3.5 -21.5q-60 53 -94.5 127.5t-34.5 158.5q0 159 112.5 271.5t271.5 112.5t271.5 -112.5t112.5 -271.5q0 -85 -35 -160t-96 -129z" />
    <glyph glyph-name="uniE677" unicode="&#xe677;" 
d="M512 748q-185 0 -316.5 -131.5t-131.5 -316.5t131.5 -316.5t316.5 -131.5t316.5 131.5t131.5 316.5t-131.5 316.5t-316.5 131.5zM512 -20q-20 0 -34 14t-14 34t14 34t34 14t34 -14t14 -34t-14 -34t-34 -14zM601 307q-19 -19 -28.5 -29t-19 -26t-9.5 -28v-54
q0 -13 -9.5 -22.5t-22.5 -9.5t-22.5 9.5t-9.5 22.5v54q0 25 13 50t25.5 39.5t36.5 38.5q18 17 26.5 26.5t17.5 23.5t9 24q0 40 -28 68.5t-68 28.5t-68 -27.5t-28 -67.5q0 -13 -9.5 -22.5t-22.5 -9.5t-22.5 9.5t-9.5 22.5q0 66 47 112.5t113 46.5t113 -47t47 -114
q0 -22 -12 -45.5t-24 -37t-35 -36.5z" />
    <glyph glyph-name="uniE678" unicode="&#xe678;" 
d="M512 28zM464 28q0 20 14 34t34 14t34 -14t14 -34t-14 -34t-34 -14t-34 14t-14 34zM512 -148q-185 0 -316.5 131.5t-131.5 316.5t131.5 316.5t316.5 131.5t316.5 -131.5t131.5 -316.5t-131.5 -316.5t-316.5 -131.5zM512 684q-104 0 -192.5 -51.5t-140 -140t-51.5 -192.5
t51.5 -192.5t140 -140t192.5 -51.5t192.5 51.5t140 140t51.5 192.5t-51.5 192.5t-140 140t-192.5 51.5zM512 138q-13 0 -22.5 9.5t-9.5 22.5v54q0 25 13 50t25.5 39.5t36.5 38.5q18 18 26.5 27t17.5 23t9 24q0 40 -28 68.5t-68 28.5t-68 -27.5t-28 -67.5q0 -13 -9.5 -22.5
t-22.5 -9.5t-22.5 9.5t-9.5 22.5q0 66 47 112.5t113 46.5t113 -47t47 -114q0 -22 -12 -45.5t-24 -37t-35 -36.5q-19 -19 -28.5 -29t-19 -26t-9.5 -28v-54q0 -13 -9.5 -22.5t-22.5 -9.5z" />
    <glyph glyph-name="uniE679" unicode="&#xe679;" 
d="M353 -20q-27 0 -45.5 -18.5t-18.5 -45.5t18.5 -45.5t45 -18.5t45.5 18.5t19 45.5t-19 45.5t-45 18.5zM801 -20q-27 0 -45.5 -18.5t-18.5 -45.5t18.5 -45.5t45 -18.5t45.5 18.5t19 45.5t-19 45.5t-45 18.5zM864 12h-520q-34 0 -61 24t-31 59l-54 382l-31 179
q-2 11 -11 19.5t-19 8.5h-41q-13 0 -22.5 9.5t-9.5 22.5t9.5 22.5t22.5 9.5h41q35 0 62 -24t31 -59l31 -178l54 -384q2 -11 10.5 -19t18.5 -8h520q13 0 22.5 -9.5t9.5 -22.5t-9.5 -22.5t-22.5 -9.5zM384 140q-12 0 -21.5 8.5t-10.5 21.5t8 23t22 11l434 32q12 0 21 8t10 19
l51 288q2 18 -9 30q-6 7 -15 7h-554q-13 0 -22.5 9.5t-9.5 22.5t9.5 22.5t22.5 9.5h554q38 0 63 -29q30 -33 24 -81l-51 -289q-4 -33 -30.5 -57t-61.5 -24l-431 -32h-3z" />
    <glyph glyph-name="uniE67A" unicode="&#xe67a;" 
d="M980 407l-406 321q-26 21 -62 21t-62 -21l-406 -321q-10 -8 -11.5 -21t6.5 -23.5t21 -12t23 6.5l13 11v-388q0 -40 34.5 -68t74.5 -28h640q37 0 60 26.5t23 69.5v386l12 -9q8 -7 20 -7q15 0 25 12q8 11 6.5 24t-11.5 21zM480 -52v177q0 14 32 14t32 -14v-177h-64z
M864 -20q0 -32 -19 -32h-236h-1v1v176q0 31 -25 54.5t-71 23.5t-71 -23.5t-25 -54.5v-176v-1h1h-212q-15 0 -30 10.5t-15 21.5v438l329 260q9 7 22.5 7t22.5 -7l330 -261v-437z" />
    <glyph glyph-name="uniE67B" unicode="&#xe67b;" 
d="M353 -20q-26 0 -45 -18.5t-19 -45t19 -45.5t45.5 -19t45 19t18.5 45.5t-18.5 45t-45.5 18.5zM801 -20q-26 0 -45 -18.5t-19 -45t19 -45.5t45.5 -19t45 19t18.5 45.5t-18.5 45t-45.5 18.5zM937 624q-25 28 -63 28h-641l-2 13q-5 35 -32 59t-62 24h-40q-13 0 -22.5 -9.5
t-9.5 -22.5t9.5 -22.5t22.5 -9.5h40q11 0 20 -8.5t10 -19.5l31 -179l54 -382q5 -35 31.5 -59t61.5 -24h520q13 0 22.5 9.5t9.5 22.5t-9.5 22.5t-22.5 9.5h-520q-10 0 -19 8t-10 19l-5 38l507 31q35 0 61.5 24t30.5 58l51 288q6 48 -24 82z" />
    <glyph glyph-name="uniE67C" unicode="&#xe67c;" 
d="M982 408l-409 320q-26 21 -62 21t-62 -21l-406 -321q-10 -8 -11.5 -21t6.5 -23.5t21 -12t24 6.5l13 11v-388q0 -40 34 -68t74 -28h640q38 0 61 26.5t23 69.5v389l14 -12q9 -7 20 -7q16 0 25 13q9 10 7 23t-12 22zM608 15v-67h-64h-64h-64v67v112q0 31 25 54t71 23t71 -23
t25 -54v-112z" />
    <glyph glyph-name="uniE67D" unicode="&#xe67d;" 
d="M512 44q-13 0 -22.5 9.5t-9.5 22.5v96q0 13 9.5 22.5t22.5 9.5t22.5 -9.5t9.5 -22.5v-96q0 -13 -9.5 -22.5t-22.5 -9.5zM832 -148h-640q-40 0 -68 28t-28 68v352q0 40 28 68t68 28h640q40 0 68 -28t28 -68v-352q0 -40 -28 -68t-68 -28zM192 332q-13 0 -22.5 -9.5
t-9.5 -22.5v-352q0 -13 9.5 -22.5t22.5 -9.5h640q13 0 22.5 9.5t9.5 22.5v352q0 13 -9.5 22.5t-22.5 9.5h-640zM736 332q-13 0 -22.5 9.5t-9.5 22.5v130q0 78 -61 134t-133 56q-74 0 -132 -52.5t-58 -137.5v-130q0 -13 -9.5 -22.5t-22.5 -9.5t-22.5 9.5t-9.5 22.5v130
q0 76 38 135.5t95 89t121 29.5q62 0 121 -31.5t98 -91t39 -131.5v-130q0 -13 -9.5 -22.5t-22.5 -9.5z" />
    <glyph glyph-name="uniE67E" unicode="&#xe67e;" 
d="M512 44q-13 0 -22.5 9.5t-9.5 22.5v96q0 13 9.5 22.5t22.5 9.5t22.5 -9.5t9.5 -22.5v-96q0 -13 -9.5 -22.5t-22.5 -9.5zM832 -148h-640q-40 0 -68 28t-28 68v384q0 40 28 68t68 28h640q40 0 68 -28t28 -68v-384q0 -40 -28 -68t-68 -28zM192 364q-13 0 -22.5 -9.5
t-9.5 -22.5v-384q0 -13 9.5 -22.5t22.5 -9.5h640q13 0 22.5 9.5t9.5 22.5v384q0 13 -9.5 22.5t-22.5 9.5h-640zM288 396q-13 0 -22.5 9.5t-9.5 22.5v65q0 76 39.5 136t99.5 89.5t127 29.5q76 0 143 -41t101 -108q6 -11 2 -24t-16 -19t-24.5 -1.5t-18.5 15.5q-26 52 -77.5 83
t-109.5 31q-79 0 -140.5 -53t-61.5 -138v-65q0 -13 -9.5 -22.5t-22.5 -9.5z" />
    <glyph glyph-name="uniE67F" unicode="&#xe67f;" 
d="M800 460h-32q-53 0 -90.5 -37.5t-37.5 -90.5v-64q0 -53 37.5 -90.5t90.5 -37.5h32q33 0 64 18v-50q0 -26 -14 -45t-34 -19h-80v-64h80q46 0 79 37.5t33 90.5v160v64q0 53 -37.5 90.5t-90.5 37.5zM800 204h-32q-26 0 -45 19t-19 45v64q0 26 19 45t45 19h32q26 0 45 -19
t19 -45v-64q0 -26 -19 -45t-45 -19zM480 492h64v-352h-64v352zM480 588h64v-64h-64v64zM256 460h-96v128h-64v-258v-64v-126h39h25h96q53 0 90.5 37t37.5 89v64q0 54 -37.5 92t-90.5 38zM320 266q0 -26 -18.5 -44t-45.5 -18h-96v64v62v66h96q26 0 45 -19.5t19 -46.5v-64z
" />
    <glyph glyph-name="uniE680" unicode="&#xe680;" 
d="M641 -54q-26 0 -45 18.5t-19 45t19 45.5t45 19h65v63q0 13 -9.5 22.5t-22.5 9.5q-27 0 -66 2v31q20 16 35.5 35.5t25.5 35.5t17 40t10.5 38t5.5 42t2 38.5t1 40.5q0 2 0.5 8t0.5 9v17l-1 8q-10 212 -189 229q-14 1 -26 2h-8h-6q-13 -1 -25 -2q-181 -17 -191 -230v-7
q-1 -10 -1 -17v-11v-9v-8q6 -157 93 -257v-38q-68 -10 -123 -28.5t-93.5 -51t-38.5 -73.5q0 -33 18 -59.5t45 -43.5t64.5 -29.5t71.5 -19t72.5 -10t60 -4.5t40.5 -1h13h14q98 0 185 18q12 3 19 11.5t7 20.5v50h-66zM898 44h-98v94q0 13 -9.5 22.5t-22.5 9.5t-22.5 -9.5
t-9.5 -22.5v-94h-95q-13 0 -22.5 -9.5t-9.5 -22.5t9.5 -22.5t22.5 -9.5h95v-98q0 -14 9.5 -23t22.5 -9t22.5 9t9.5 23v98h98q13 0 22.5 9.5t9.5 22.5t-9.5 22.5t-22.5 9.5z" />
    <glyph glyph-name="uniE681" unicode="&#xe681;" 
d="M898 44h-98v94q0 13 -9.5 22.5t-22.5 9.5t-22.5 -9.5t-9.5 -22.5v-94h-95q-13 0 -22.5 -9.5t-9.5 -22.5t9.5 -22.5t22.5 -9.5h95v-98q0 -14 9.5 -23t22.5 -9t22.5 9t9.5 23v98h98q13 0 22.5 9.5t9.5 22.5t-9.5 22.5t-22.5 9.5zM468 -151q-28 0 -58 1.5t-76 6.5t-84.5 17
t-74.5 29t-57 46t-21 66q0 40 38.5 72.5t93.5 51t124 28.5v37q-30 29 -50 64t-29 74.5t-12 71.5t-4 75q0 119 60.5 188t164.5 69q222 0 222 -256q0 -54 -16.5 -102.5t-47.5 -106.5l-32 -66v-77q0 -14 -9 -23t-22.5 -9t-23 9t-9.5 23v85q0 7 4 14l35 73q28 53 42.5 94.5
t14.5 85.5q0 100 -37.5 146t-120.5 46q-42 0 -73 -15t-47 -36t-26 -49.5t-12.5 -49.5t-2.5 -42q1 -90 19 -148t65 -99q11 -10 11 -24v-80q0 -13 -8 -22t-20 -10q-98 -11 -163 -39t-65 -53q0 -27 30 -47.5t78 -32t98.5 -17t100.5 -5.5q48 0 169 14q13 2 23.5 -6t12.5 -21
t-6 -23.5t-21 -12.5q-113 -15 -178 -15z" />
    <glyph glyph-name="uniE682" unicode="&#xe682;" 
d="M929 524h-75q12 0 24 19.5t19 42.5q14 46 -17 87q-2 2 -4 5q-28 23 -62 31t-64 3.5t-62.5 -18t-53.5 -26t-41 -26.5q-11 -8 -13.5 -21t5 -24t20.5 -13.5t24 5.5l1 1l2 1q17 12 36.5 23t49.5 24t60.5 12t52.5 -19q9 -13 5 -27q-6 -16 -24 -31.5t-32 -20.5
q-63 -24 -105 -27q-1 0 -2.5 -0.5t-2.5 -0.5h-89q-1 0 -2 2.5t-2 3.5q-109 101 -127 113q-88 61 -164.5 70t-128.5 -35l-5 -5q-30 -41 -16 -87q7 -23 18.5 -42.5t24.5 -19.5h-82q-13 0 -23 -10t-10 -23v-160q0 -8 0.5 -12.5t3.5 -9.5t9.5 -7.5t18.5 -2.5v-313
q0 -42 27.5 -72t65.5 -30h646q38 0 65.5 30.5t27.5 71.5v313q12 0 18.5 2.5t9.5 7.5t3.5 9.5t0.5 12.5v160q0 14 -9 23.5t-22 9.5zM357 525q-41 3 -106 28q-13 4 -31 19.5t-23 32.5q-4 13 4 26q23 18 53.5 19.5t62.5 -10.5t54.5 -24t44.5 -27q3 -2 73 -65h-126q-1 0 -3 0.5
t-3 0.5zM896 460v-96h-764q-4 0 -4 -1v97h768zM835 -52h-646q-12 0 -20.5 12t-8.5 26v314h704v-314q0 -14 -9 -26t-20 -12z" />
    <glyph glyph-name="uniE683" unicode="&#xe683;" 
d="M832 716h-640q-40 0 -68 -28t-28 -68v-640q0 -40 28 -68t68 -28h640q40 0 68 28t28 68v640q0 40 -28 68t-68 28zM727 374l-256 -259v-1q-2 -1 -7 -4q-1 -1 -2 -1.5t-2 -1.5q-6 -2 -12 -2t-12 2q-1 1 -2 1.5t-1 1.5q-6 3 -7 4v1h-1l-126 129q-9 10 -9 23t9.5 22.5t23 9
t22.5 -9.5l103 -106l234 236q9 9 22.5 9t22.5 -9.5t9.5 -22.5t-9.5 -22z" />
    <glyph glyph-name="uniE684" unicode="&#xe684;" 
d="M727 418.5q-9 9.5 -22.5 9.5t-22.5 -9l-234 -236l-103 106q-9 9 -22.5 9.5t-23 -9t-9.5 -22.5t9 -23l126 -129h1v-1q1 -1 7 -4q0 -1 1 -1.5t2 -1.5q6 -2 12 -2t12 2q1 1 2 1.5t2 1.5q5 3 7 4v1l256 259q10 9 9.5 22t-9.5 22.5zM832 -116h-640q-40 0 -68 28t-28 68v640
q0 40 28 68t68 28h640q40 0 68 -28t28 -68v-640q0 -40 -28 -68t-68 -28zM192 652q-13 0 -22.5 -9.5t-9.5 -22.5v-640q0 -13 9.5 -22.5t22.5 -9.5h640q13 0 22.5 9.5t9.5 22.5v640q0 13 -9.5 22.5t-22.5 9.5h-640z" />
    <glyph glyph-name="uniE685" unicode="&#xe685;" 
d="M512 746q-91 0 -173.5 -35.5t-142 -95t-95 -142t-35.5 -173.5t35.5 -173.5t95 -142t142 -95t173.5 -35.5t173.5 35.5t142 95t95 142t35.5 173.5t-35.5 173.5t-95 142t-142 95t-173.5 35.5zM544 76q0 -13 -9.5 -22.5t-22.5 -9.5t-22.5 9.5t-9.5 22.5v288q0 13 9.5 22.5
t22.5 9.5t22.5 -9.5t9.5 -22.5v-288zM512 460q-20 0 -34 14t-14 34t14 34t34 14t34 -14t14 -34t-14 -34t-34 -14z" />
    <glyph glyph-name="uniE686" unicode="&#xe686;" 
d="M512 -146q-91 0 -173.5 35.5t-142 95t-95 142t-35.5 173.5t35.5 173.5t95 142t142 95t173.5 35.5t173.5 -35.5t142 -95t95 -142t35.5 -173.5t-35.5 -173.5t-95 -142t-142 -95t-173.5 -35.5zM512 682q-104 0 -192 -51t-139 -139t-51 -192t51 -192t139 -139t192 -51t192 51
t139 139t51 192t-51 192t-139 139t-192 51zM512 508zM464 508q0 20 14 34t34 14t34 -14t14 -34t-14 -34t-34 -14t-34 14t-14 34zM512 44q-13 0 -22.5 9.5t-9.5 22.5v288q0 13 9.5 22.5t22.5 9.5t22.5 -9.5t9.5 -22.5v-288q0 -13 -9.5 -22.5t-22.5 -9.5z" />
    <glyph glyph-name="uniE687" unicode="&#xe687;" 
d="M512 748q-185 0 -316.5 -131.5t-131.5 -316.5t131.5 -316.5t316.5 -131.5t316.5 131.5t131.5 316.5t-131.5 316.5t-316.5 131.5zM641 236q13 0 22.5 -9.5t9.5 -22.5t-9.5 -22.5t-22.5 -9.5h-97v-95q0 -13 -9.5 -22.5t-22.5 -9.5t-22.5 9.5t-9.5 22.5v95h-95
q-13 0 -22.5 9.5t-9.5 22.5t9.5 22.5t22.5 9.5h95v64h-95q-13 0 -22.5 9.5t-9.5 22.5t9.5 22.5t22.5 9.5h95v20l-118 118q-10 10 -9.5 23t9.5 22.5t22.5 9.5t22.5 -9l108 -108l101 107q10 10 23 10t22.5 -9t10 -22t-9.5 -23l-118 -124v-15h97q13 0 22.5 -9.5t9.5 -22.5
t-9.5 -22.5t-22.5 -9.5h-97v-64h97z" />
    <glyph glyph-name="uniE688" unicode="&#xe688;" 
d="M512 748q-185 0 -316.5 -131.5t-131.5 -316.5t131.5 -316.5t316.5 -131.5t316.5 131.5t131.5 316.5t-131.5 316.5t-316.5 131.5zM512 -84q-159 0 -271.5 112.5t-112.5 271.5t112.5 271.5t271.5 112.5t271.5 -112.5t112.5 -271.5t-112.5 -271.5t-271.5 -112.5zM641 300
q13 0 22.5 9.5t9.5 22.5t-9.5 22.5t-22.5 9.5h-97v15l119 124q9 10 8.5 23t-10 22t-22.5 9t-22 -10l-102 -107l-107 108q-10 9 -23 9t-22.5 -9.5t-10 -22.5t9.5 -23l118 -118v-20h-95q-13 0 -22.5 -9.5t-9.5 -22.5t9.5 -22.5t22.5 -9.5h95v-64h-95q-13 0 -22.5 -9.5
t-9.5 -22.5t9.5 -22.5t22.5 -9.5h95v-95q0 -13 9.5 -22.5t22.5 -9.5t22.5 9.5t9.5 22.5v95h97q13 0 22.5 9.5t9.5 22.5t-9.5 22.5t-22.5 9.5h-97v64h97z" />
    <glyph glyph-name="uniE689" unicode="&#xe689;" 
d="M863 300q0 116 -68 211q-8 10 -21 12.5t-23.5 -5.5t-13 -21t5.5 -24q56 -78 56 -173t-56 -173q-8 -11 -5.5 -24t12.5 -21q9 -6 19 -6q16 0 26 13q68 95 68 211zM271.5 518q-10.5 8 -23.5 5.5t-21 -12.5q-68 -95 -68 -211t68 -211q10 -13 26 -13q10 0 19 6q10 8 12.5 21
t-5.5 24q-56 78 -56 173t56 173q8 11 5.5 24t-13 21zM851 673q-8 10 -21.5 11t-23.5 -8t-11 -22t8 -23q61 -69 93 -154.5t32 -176.5t-32 -176.5t-93 -154.5q-9 -10 -8 -23t11 -22q9 -8 21 -8q15 0 24 11q68 78 104.5 174t36.5 199t-36.5 199t-104.5 174zM97 300
q0 91 32.5 176.5t92.5 154.5q9 10 8 23t-11 22t-23 8t-22 -11q-68 -78 -104.5 -174t-36.5 -199t36.5 -199t104.5 -174q9 -11 24 -11q12 0 21 8q10 9 11 22t-8 23q-60 69 -92.5 154.5t-32.5 176.5zM692 164q6 8 10 13q0 1 1 3l1 1q5 9 8 14q1 1 1.5 2.5t1.5 2.5q4 8 6 15
q1 1 1.5 3t0.5 3q4 9 5 14q1 1 1.5 4t1.5 4q2 10 3 13l2 11q0 1 0.5 4.5t0.5 5.5q1 12 1 23q0 93 -65.5 158.5t-158.5 65.5t-158.5 -65.5t-65.5 -158.5q0 -12 1 -24h1q5 -47 28 -88q6 -10 13 -19q0 -1 1 -1q6 -9 14 -17v-1l1 -1q7 -8 15 -15l1 -1q39 -35 90 -49
q-9 -14 -18 -23q-10 -10 -9.5 -23t10 -22.5t22.5 -9.5t23 10q26 27 42 60q1 0 3 0.5t3 0.5q7 0 11 1q5 0 11 2q6 1 11 2q3 0 10 2t11 4q5 1 9 3l12 4q1 1 7 4l12 6l6 4q7 4 12 8q1 0 5 3q7 6 12 10l4 3l11 11l2 2q1 1 1 2q7 6 11 12q1 2 3 4z" />
    <glyph glyph-name="uniE68A" unicode="&#xe68a;" 
d="M863 300q0 116 -68 211q-8 10 -21 12.5t-23.5 -5.5t-13 -21t5.5 -24q56 -78 56 -173t-56 -173q-8 -11 -5.5 -24t12.5 -21q9 -6 19 -6q16 0 26 13q68 95 68 211zM271.5 518q-10.5 8 -23.5 5.5t-21 -12.5q-68 -95 -68 -211t68 -211q10 -13 26 -13q10 0 19 6q10 8 12.5 21
t-5.5 24q-56 78 -56 173t56 173q8 11 5.5 24t-13 21zM851 673q-8 10 -21.5 11t-23.5 -8t-11 -22t8 -23q61 -69 93 -154.5t32 -176.5t-32 -176.5t-93 -154.5q-9 -10 -8 -23t11 -22q9 -8 21 -8q15 0 24 11q68 78 104.5 174t36.5 199t-36.5 199t-104.5 174zM97 300
q0 91 32.5 176.5t92.5 154.5q9 10 8 23t-11 22t-23 8t-22 -11q-68 -78 -104.5 -174t-36.5 -199t36.5 -199t104.5 -174q9 -11 24 -11q12 0 21 8q10 9 11 22t-8 23q-60 69 -92.5 154.5t-32.5 176.5zM514.5 524q-92.5 0 -158.5 -65.5t-66 -158.5q0 -48 19.5 -91.5t55.5 -75.5
q10 -9 23 -8t22 11t8 23t-10 22q-54 48 -54 119q0 66 47 113t113 47t113 -47t47 -113t-47 -113t-113 -47h-11q-23 0 -30 -21q-12 -33 -36 -58q-10 -10 -9.5 -23t10 -22.5t22.5 -9.5t23 10q26 27 42 60q89 4 151 69t62 155q0 93 -65.5 158.5t-158 65.5z" />
    <glyph glyph-name="uniE68B" unicode="&#xe68b;" 
d="M320 -148q-9 0 -17 5q-10 6 -13.5 16.5t0.5 21.5l112 309h-242q-21 0 -29.5 19.5t6.5 35.5l480 480q10 9 23 9t22.5 -9.5t9.5 -22.5t-9 -23l-426 -425h211q17 0 26.5 -13.5t3.5 -29.5l-79 -216l388 387h-211q-13 0 -22.5 9.5t-9.5 22.5t9.5 22.5t22.5 9.5h288
q21 0 29.5 -19.5t-6.5 -35.5l-544 -544q-10 -9 -23 -9zM786.5 140q-59.5 0 -102 -42.5t-42.5 -102t42.5 -101.5t102 -42t101.5 42t42 101.5t-42 102t-101.5 42.5zM866 -4q0 -16 -6 -32l-105 105q15 7 31 7q33 0 56.5 -23.5t23.5 -56.5zM706 -4q0 13 5 27l102 -102
q-14 -5 -27 -5q-33 0 -56.5 23.5t-23.5 56.5z" />
    <glyph glyph-name="uniE68C" unicode="&#xe68c;" 
d="M893.5 440.5q-8.5 19.5 -29.5 19.5h-248l55 249q5 24 -16 35.5t-38 -5.5l-480 -480q-15 -15 -6.5 -35t29.5 -20h242l-112 -309q-4 -11 -0.5 -21.5t13.5 -16.5q8 -5 17 -5q13 0 23 10l544 543q15 16 6.5 35.5z" />
    <glyph glyph-name="uniE68D" unicode="&#xe68d;" 
d="M320 -148q-9 0 -17 5q-10 6 -13.5 16.5t0.5 21.5l112 309h-242q-21 0 -29.5 19.5t6.5 35.5l480 480q10 9 23 9t22.5 -9.5t9.5 -22.5t-9 -23l-426 -425h211q17 0 26.5 -13.5t3.5 -29.5l-79 -216l388 387h-211q-13 0 -22.5 9.5t-9.5 22.5t9.5 22.5t22.5 9.5h288
q21 0 29.5 -19.5t-6.5 -35.5l-544 -544q-10 -9 -23 -9z" />
    <glyph glyph-name="uniE68E" unicode="&#xe68e;" 
d="M512 140q-13 0 -22.5 9.5t-9.5 22.5v96q0 13 9.5 22.5t22.5 9.5t22.5 -9.5t9.5 -22.5v-96q0 -13 -9.5 -22.5t-22.5 -9.5zM828 603q-9 17 -28 17h-576q-19 0 -28 -17t1 -33l123 -184v-150v-32v-256q0 -40 28 -68t68 -28h192q40 0 68 28t28 68v245v191l123 186q10 16 1 33z
M645 411q-5 -8 -5 -17v-157v-1v-288q0 -13 -9.5 -22.5t-22.5 -9.5h-192q-13 0 -22.5 9.5t-9.5 22.5v256v32v160q0 10 -5 18l-95 142h457zM608 652h-192q-13 0 -22.5 9.5t-9.5 22.5t9.5 22.5t22.5 9.5h192q13 0 22.5 -9.5t9.5 -22.5t-9.5 -22.5t-22.5 -9.5z" />
    <glyph glyph-name="uniE68F" unicode="&#xe68f;" 
d="M512 140q-13 0 -22.5 9.5t-9.5 22.5v96q0 13 9.5 22.5t22.5 9.5t22.5 -9.5t9.5 -22.5v-96q0 -13 -9.5 -22.5t-22.5 -9.5zM884.5 675q-10.5 8 -23.5 6t-21 -12l-193 -256q-7 -9 -7 -19v-158v-288q0 -13 -9.5 -22.5t-22.5 -9.5h-192q-13 0 -22.5 9.5t-9.5 22.5v189v99v160
q0 11 -6 19l-190 256q-8 11 -21 13t-24 -6t-12.5 -21t5.5 -24l184 -248v-149v-99v-189q0 -40 28 -68t68 -28h192q40 0 68 28t28 68v192v243l187 247q8 11 6 24t-12.5 21zM512 524q-13 0 -22.5 9.5t-9.5 22.5v160q0 13 9.5 22.5t22.5 9.5t22.5 -9.5t9.5 -22.5v-160
q0 -13 -9.5 -22.5t-22.5 -9.5z" />
    <glyph glyph-name="uniE690" unicode="&#xe690;" 
d="M928 524h-99q3 37 3 67q0 29 -3 63q0 12 -9.5 20.5t-21.5 8.5h-571q-13 0 -22 -8.5t-10 -20.5q-3 -35 -3 -63q0 -30 3 -67h-99q-13 0 -22.5 -9.5t-9.5 -22.5q0 -99 53.5 -161.5t138.5 -62.5q1 0 2.5 0.5t2.5 0.5q39 -81 96 -131.5t123 -60.5v-1v-128h-128
q-13 0 -22.5 -9.5t-9.5 -22.5t9.5 -22.5t22.5 -9.5h320q13 0 22.5 9.5t9.5 22.5t-9.5 22.5t-22.5 9.5h-128v128v1q66 10 123 60.5t97 131.5l2 -1h2q85 0 138.5 62.5t53.5 161.5q0 13 -9.5 22.5t-22.5 9.5zM130 460h72q11 -67 31 -126q-41 8 -68.5 41.5t-34.5 84.5zM791 334
q20 58 31 126h72q-7 -51 -34.5 -84.5t-68.5 -41.5z" />
    <glyph glyph-name="uniE691" unicode="&#xe691;" 
d="M928 524h-99q3 37 3 67q0 29 -3 63q0 12 -9.5 20.5t-21.5 8.5h-571q-13 0 -22 -8.5t-10 -20.5q-3 -35 -3 -63q0 -30 3 -67h-99q-13 0 -22.5 -9.5t-9.5 -22.5q0 -99 53.5 -161.5t138.5 -62.5q1 0 2.5 0.5t2.5 0.5q39 -81 96 -131.5t123 -60.5v-1v-128h-128
q-13 0 -22.5 -9.5t-9.5 -22.5t9.5 -22.5t22.5 -9.5h320q13 0 22.5 9.5t9.5 22.5t-9.5 22.5t-22.5 9.5h-128v128v1q66 10 123 60.5t97 131.5l2 -1h2q85 0 138.5 62.5t53.5 161.5q0 13 -9.5 22.5t-22.5 9.5zM130 460h72q11 -67 31 -126q-41 8 -68.5 41.5t-34.5 84.5zM512 139
q-68 0 -127 61.5t-94 165.5t-35 225q0 14 1 28h510q1 -15 1 -28q0 -121 -35 -225t-94 -165.5t-127 -61.5zM791 334q20 58 31 126h72q-7 -51 -34.5 -84.5t-68.5 -41.5z" />
    <glyph glyph-name="uniE692" unicode="&#xe692;" 
d="M803 493q-8 7 -18 13q15 24 15 50v32q0 40 -28.5 68t-67.5 28h-111q-7 1 -25 17t-33 35q-10 12 -26 11.5t-26 -13.5q-12 -17 -27 -32.5t-21 -17.5h-115q-40 0 -68 -28t-28 -68v-32q0 -26 14 -49q-47 -30 -47 -87v-467q0 -43 30.5 -73t73.5 -30h435q42 0 72.5 30t30.5 73
v467q0 42 -30 73zM448 12h-96q-13 0 -22.5 9.5t-9.5 22.5t9.5 22.5t22.5 9.5h96q13 0 22.5 -9.5t9.5 -22.5t-9.5 -22.5t-22.5 -9.5zM512 140h-160q-13 0 -22.5 9.5t-9.5 22.5t9.5 22.5t22.5 9.5h160q13 0 22.5 -9.5t9.5 -22.5t-9.5 -22.5t-22.5 -9.5zM320 300q0 13 9.5 22.5
t22.5 9.5h96q13 0 22.5 -9.5t9.5 -22.5t-9.5 -22.5t-22.5 -9.5h-96q-13 0 -22.5 9.5t-9.5 22.5zM704 460h-384q-13 0 -22.5 9.5t-9.5 22.5t9.5 22.5t22.5 9.5h384q13 0 22.5 -9.5t9.5 -22.5t-9.5 -22.5t-22.5 -9.5z" />
    <glyph glyph-name="uniE693" unicode="&#xe693;" 
d="M803 493q-8 7 -18 13q15 24 15 50v32q0 40 -28.5 68t-67.5 28h-111q-7 1 -25 17t-33 35q-9 11 -26 12q-16 -1 -26 -14q-12 -17 -27 -32.5t-21 -17.5h-115q-40 0 -68 -28t-28 -68q0 -13 9.5 -22.5t22.5 -9.5t22.5 9.5t9.5 22.5t9.5 22.5t22.5 9.5h115q34 0 76 46
q46 -46 82 -46h111q13 0 22.5 -9.5t9.5 -22.5v-32q0 -13 -9.5 -22.5t-22.5 -9.5h-384h-3l-2 -1h-24q-42 0 -71 -30t-29 -73v-467q0 -43 30.5 -73t73.5 -30h435q42 0 72.5 30t30.5 73v467q0 42 -30 73zM769 -47q0 -16 -11.5 -27.5t-27.5 -11.5h-435q-17 0 -28.5 11.5
t-11.5 27.5v467q0 17 10.5 28t25.5 11h439q16 0 27.5 -11.5t11.5 -27.5v-467zM352 268h96q13 0 22.5 9.5t9.5 22.5t-9.5 22.5t-22.5 9.5h-96q-13 0 -22.5 -9.5t-9.5 -22.5t9.5 -22.5t22.5 -9.5zM512 204h-160q-13 0 -22.5 -9.5t-9.5 -22.5t9.5 -22.5t22.5 -9.5h160
q13 0 22.5 9.5t9.5 22.5t-9.5 22.5t-22.5 9.5zM448 76h-96q-13 0 -22.5 -9.5t-9.5 -22.5t9.5 -22.5t22.5 -9.5h96q13 0 22.5 9.5t9.5 22.5t-9.5 22.5t-22.5 9.5z" />
    <glyph glyph-name="uniE694" unicode="&#xe694;" 
d="M512 748q-185 0 -316.5 -131.5t-131.5 -316.5t131.5 -316.5t316.5 -131.5t316.5 131.5t131.5 316.5t-131.5 316.5t-316.5 131.5zM657 108h47q13 0 22.5 -9.5t9.5 -22.5t-9.5 -22.5t-22.5 -9.5h-64q-5 0 -11 2l-2 1q-5 2 -9 6v1q-1 0 -1 1q-3 3 -4 3l-118 178h-79v-128h32
q13 0 22.5 -9.5t9.5 -22.5t-9.5 -22.5t-22.5 -9.5h-128q-13 0 -22.5 9.5t-9.5 22.5t9.5 22.5t22.5 9.5h32v288q0 13 9.5 22.5t22.5 9.5t22.5 -9.5t9.5 -22.5v-96h160q40 0 68 28t28 68t-28 68t-68 28h-256q-13 0 -22.5 9.5t-9.5 22.5t9.5 22.5t22.5 9.5h256q66 0 113 -47
t47 -113t-47 -113t-113 -47h-4z" />
    <glyph glyph-name="uniE695" unicode="&#xe695;" 
d="M512 748q-185 0 -316.5 -131.5t-131.5 -316.5t131.5 -316.5t316.5 -131.5t316.5 131.5t131.5 316.5t-131.5 316.5t-316.5 131.5zM512 -84q-159 0 -271.5 112.5t-112.5 271.5t112.5 271.5t271.5 112.5t271.5 -112.5t112.5 -271.5t-112.5 -271.5t-271.5 -112.5zM736 396
q0 66 -47 113t-113 47h-256q-13 0 -22.5 -9.5t-9.5 -22.5t9.5 -22.5t22.5 -9.5h256q40 0 68 -28t28 -68t-28 -68t-68 -28h-160v96q0 13 -9.5 22.5t-22.5 9.5t-22.5 -9.5t-9.5 -22.5v-288h-32q-13 0 -22.5 -9.5t-9.5 -22.5t9.5 -22.5t22.5 -9.5h128q13 0 22.5 9.5t9.5 22.5
t-9.5 22.5t-22.5 9.5h-32v128h79l118 -178q1 0 4 -3q0 -1 1 -1v-1q4 -4 9 -6l2 -1q6 -2 11 -2h64q13 0 22.5 9.5t9.5 22.5t-9.5 22.5t-22.5 9.5h-47l-85 128h4q66 0 113 47t47 113z" />
    <glyph glyph-name="uniE696" unicode="&#xe696;" 
d="M960 451l-104 246q-8 19 -30 19h-594q-19 0 -28 -16l-133 -243q-11 -18 3 -35l417 -525q10 -13 26 -13q15 0 25 13l414 521q12 15 4 33zM800 396h-256v-416q0 -13 -9.5 -22.5t-22.5 -9.5t-22.5 9.5t-9.5 22.5v416h-256q-13 0 -22.5 9.5t-9.5 22.5t9.5 22.5t22.5 9.5h203
l-160 136q-10 8 -11 21.5t7.5 23.5t22 11t23.5 -8l205 -174l201 174q10 9 23.5 8t22 -11t7.5 -23.5t-11 -21.5l-157 -136h200q13 0 22.5 -9.5t9.5 -22.5t-9.5 -22.5t-22.5 -9.5z" />
    <glyph glyph-name="uniE697" unicode="&#xe697;" 
d="M960 451l-104 246q-8 19 -30 19h-594q-19 0 -28 -16l-133 -243q-11 -18 3 -35l417 -525q10 -13 26 -13q15 0 25 13l414 521q12 15 4 33zM742 652l-226 -182l-208 182h434zM238 629l192 -169h-206q-13 0 -22.5 -9.5t-9.5 -22.5t9.5 -22.5t22.5 -9.5h256v-382l-343 431z
M544 3v393h256q13 0 22.5 9.5t9.5 22.5t-9.5 22.5t-22.5 9.5h-195l210 169l79 -186z" />
    <glyph glyph-name="uniE698" unicode="&#xe698;" 
d="M937 619l-227 64q-14 4 -26 -4t-14 -22q-11 -61 -53.5 -97t-104.5 -36q-25 0 -52 16t-49 41t-37.5 46.5t-25.5 39.5q-5 10 -15.5 14.5t-21.5 1.5l-224 -64q-10 -3 -16.5 -11.5t-6.5 -19.5v-256q0 -15 11.5 -24.5t26.5 -6.5l122 24v-345q0 -40 28 -68t68 -28h384
q40 0 68 28t28 68v313l122 -24q15 -3 26.5 6.5t11.5 24.5v288q0 11 -6.5 19.5t-16.5 11.5zM672 12h-320q-13 0 -22.5 9.5t-9.5 22.5t9.5 22.5t22.5 9.5h320q13 0 22.5 -9.5t9.5 -22.5t-9.5 -22.5t-22.5 -9.5z" />
    <glyph glyph-name="uniE699" unicode="&#xe699;" 
d="M937 619l-227 64q-14 4 -26 -4t-14 -22q-10 -58 -54.5 -95.5t-103.5 -37.5q-35 0 -79 27q-12 7 -24.5 4t-19.5 -14.5t-4 -24t14 -19.5q60 -37 113 -37q73 0 131 42t81 110l172 -48v-225l-122 24q-15 3 -26.5 -6.5t-11.5 -24.5v-352q0 -13 -9.5 -22.5t-22.5 -9.5h-384
q-13 0 -22.5 9.5t-9.5 22.5v384q0 15 -12 24.5t-26 6.5l-122 -24v193l201 57q13 4 19 15.5t2.5 24.5t-15 19t-24.5 3l-224 -64q-10 -3 -16.5 -11.5t-6.5 -19.5v-256q0 -15 11.5 -24.5t26.5 -6.5l122 24v-345q0 -40 28 -68t68 -28h384q40 0 68 28t28 68v313l122 -24
q15 -3 26.5 6.5t11.5 24.5v288q0 11 -6.5 19.5t-16.5 11.5zM320 44q0 -13 9.5 -22.5t22.5 -9.5h320q13 0 22.5 9.5t9.5 22.5t-9.5 22.5t-22.5 9.5h-320q-13 0 -22.5 -9.5t-9.5 -22.5z" />
    <glyph glyph-name="uniE69A" unicode="&#xe69a;" 
d="M864 556q-15 0 -24 10t-8.5 23.5t10.5 21.5l33 30q10 9 23 8t22 -10.5t8 -23t-10 -22.5l-33 -29q-9 -8 -21 -8zM160 556q-12 0 -21 8l-33 29q-9 9 -10 22.5t8 23t22 10.5t23 -8l33 -30q10 -8 10.5 -21.5t-8.5 -23.5t-24 -10zM512 684q-13 0 -22.5 9.5t-9.5 22.5v32
q0 13 9.5 22.5t22.5 9.5t22.5 -9.5t9.5 -22.5v-32q0 -13 -9.5 -22.5t-22.5 -9.5zM512 662q-87 0 -160.5 -42.5t-116.5 -116.5t-43 -161q0 -31 7.5 -62t16.5 -51.5t21.5 -40t17.5 -26t9 -10.5q22 -25 39 -68.5t17 -76.5v-56q0 -53 37.5 -90.5t90.5 -37.5h128q53 0 90.5 37.5
t37.5 90.5v56q0 33 17 76.5t39 68.5q4 4 9.5 10.5t17.5 26t21 40t16.5 51.5t7.5 62q0 87 -43 161t-116.5 116.5t-160.5 42.5zM576 -52h-128q-13 0 -22.5 9.5t-9.5 22.5t9.5 22.5t22.5 9.5h128q13 0 22.5 -9.5t9.5 -22.5t-9.5 -22.5t-22.5 -9.5zM650 238q-5 -2 -10 -2
q-23 0 -30 22l-16 47l-59 -60q-10 -9 -23 -9t-23 9l-59 60l-16 -47q-4 -13 -16 -19t-24.5 -1.5t-18.5 16.5t-1 24l32 96q5 17 22.5 21t30.5 -8l73 -74l73 74q13 12 30.5 8t22.5 -21l32 -96q5 -12 -1 -24t-19 -16z" />
    <glyph glyph-name="uniE69B" unicode="&#xe69b;" 
d="M576 -177h-128q-53 0 -90.5 37.5t-37.5 90.5v56q0 33 -17 76.5t-39 68.5q-4 4 -9 10.5t-17.5 26t-21.5 40t-16.5 51.5t-7.5 62q0 87 43 161t116.5 116.5t160.5 42.5t160.5 -42.5t116.5 -116.5t43 -161q0 -31 -7.5 -62t-16.5 -51.5t-21.5 -40t-17.5 -26t-9 -10.5
q-22 -25 -39 -68.5t-17 -76.5v-56q0 -53 -37.5 -90.5t-90.5 -37.5zM512 598q-106 0 -181 -75t-75 -181q0 -38 15 -76t24.5 -51.5t15.5 -19.5q31 -33 52 -88t21 -100v-56q0 -26 19 -45t45 -19h128q26 0 45 19t19 45v56q0 45 21 100t52 88q7 8 16 20.5t24 50.5t15 76
q0 106 -75 181t-181 75zM640 236q-23 0 -30 22l-16 47l-59 -60q-10 -9 -23 -9t-23 9l-59 60l-16 -47q-4 -13 -16 -19t-24.5 -1.5t-18.5 16.5t-1 24l32 96q5 17 22.5 21t30.5 -8l73 -74l73 74q13 12 30.5 8t22.5 -21l32 -96q5 -12 -1 -24t-19 -16q-5 -2 -10 -2zM864 556
q-15 0 -24 10t-8.5 23.5t10.5 21.5l33 30q10 9 23 8t22 -10.5t8 -23t-10 -22.5l-33 -29q-9 -8 -21 -8zM160 556q-12 0 -21 8l-33 29q-9 9 -10 22.5t8 23t22 10.5t23 -8l33 -30q10 -8 10.5 -21.5t-8.5 -23.5t-24 -10zM512 684q-13 0 -22.5 9.5t-9.5 22.5v32q0 13 9.5 22.5
t22.5 9.5t22.5 -9.5t9.5 -22.5v-32q0 -13 -9.5 -22.5t-22.5 -9.5zM576 -52h-128q-13 0 -22.5 9.5t-9.5 22.5t9.5 22.5t22.5 9.5h128q13 0 22.5 -9.5t9.5 -22.5t-9.5 -22.5t-22.5 -9.5z" />
    <glyph glyph-name="uniE69C" unicode="&#xe69c;" 
d="M864 396q0 146 -103 249t-249 103t-249 -103t-103 -249q0 -137 92.5 -237.5t227.5 -112.5v-2v-64h-128q-13 0 -22.5 -9.5t-9.5 -22.5t9.5 -22.5t22.5 -9.5h128v-32q0 -13 9.5 -22.5t22.5 -9.5t22.5 9.5t9.5 22.5v32h128q13 0 22.5 9.5t9.5 22.5t-9.5 22.5t-22.5 9.5h-128
v64v2q135 12 227.5 112.5t92.5 237.5zM512 108q-119 0 -203.5 84.5t-84.5 203.5t84.5 203.5t203.5 84.5t203.5 -84.5t84.5 -203.5t-84.5 -203.5t-203.5 -84.5z" />
    <glyph glyph-name="uniE69D" unicode="&#xe69d;" 
d="M927 691l-1 4q-1 2 -4 6q0 1 -0.5 2.5t-1.5 1.5v1h-1q-1 1 -5 4l-5 3q-6 3 -13 3h-224q-13 0 -22.5 -9.5t-9.5 -22.5t9.5 -22.5t22.5 -9.5h139l-152 -135q-94 71 -211 71q-146 0 -249 -103t-103 -249t103 -249t249 -103t249 103t103 249q0 137 -94 238l158 139v-121
q0 -13 9.5 -22.5t22.5 -9.5t22.5 9.5t9.5 22.5v192q0 1 -1 7zM736 236q0 -119 -84.5 -203.5t-203.5 -84.5t-203.5 84.5t-84.5 203.5t84.5 203.5t203.5 84.5t203.5 -84.5t84.5 -203.5z" />
    <glyph glyph-name="uniE69E" unicode="&#xe69e;" 
d="M387 30zM286 71zM512 748q-121 0 -224.5 -51.5t-163.5 -140t-60 -192.5q0 -87 45 -165.5t126 -133.5l87 -71q-7 -35 -33 -98q-8 -20 8 -35q9 -9 22 -9q7 0 13 3q144 64 188 125q119 2 220.5 54t160.5 139.5t59 190.5q0 104 -60 192.5t-163.5 140t-224.5 51.5zM731 405
l-129 -188q-9 -14 -26 -14h-1q-17 0 -26 14l-92 142l-71 -139q-9 -17 -29 -17q-7 0 -14 3q-12 6 -16 18.5t2 24.5l97 189q8 17 27 17q18 1 28 -14l96 -149l101 149q8 11 21 13.5t24 -5t13.5 -20.5t-5.5 -24z" />
    <glyph glyph-name="uniE69F" unicode="&#xe69f;" 
d="M963 366q0 104 -60 192.5t-163 140t-224.5 51.5t-225 -51.5t-163.5 -140t-60 -192.5q0 -88 45.5 -166.5t127.5 -134.5q11 -7 24 -4.5t20.5 13t5 24t-13.5 20.5q-69 47 -107 111.5t-38 136.5q0 86 51.5 160t140 117t192.5 43t192.5 -43t140 -117t51.5 -160.5t-51.5 -160.5
t-140 -116.5t-192.5 -42.5h-3l-2 -1q-12 2 -22 -4t-14 -17q-9 -25 -94 -73q17 58 3 79q-11 15 -30 15q-13 0 -22.5 -9t-9.5 -23q0 -8 4 -15q-5 -33 -33 -100q-8 -20 8 -35q9 -9 22 -9q7 0 13 2q144 65 188 126q119 2 220.5 53.5t160.5 139.5t59 191zM343 207q6 -3 14 -3
q20 0 29 17l71 140l92 -142q9 -15 26 -15h1q17 0 26 14l129 189q8 11 5.5 24t-13.5 20.5t-24 5t-21 -13.5l-101 -149l-96 148q-9 15 -28 15q-19 -1 -27 -18l-97 -188q-6 -12 -2 -24.5t16 -19.5z" />
    </font>
</defs>
</svg>
